<svg xmlns="http://www.w3.org/2000/svg" width="260" height="62.68" viewBox="0 0 260 62.68"><defs><style>.cls-1{fill:#573a2f}.cls-2{fill:#f8b616}</style></defs><title>bnr_logo</title><g id="レイヤー_2" data-name="レイヤー 2"><g id="logo_data" data-name="logo data"><g id="logo_住まいテラス_横"><g id="logomark"><path class="cls-1" d="M248.9 29.87V55.7h-39.36V25.54l21.07-13.08-2.46-3.95-30.83 19.14 2.46 3.96 5.1-3.17v31.92h48.68V29.87h-4.66z"/><path class="cls-1" d="M239.74 45.61l-2-2.88c-5.94 4.07-11.4 4.09-16.7.05L219 45.56a16.62 16.62 0 0 0 10.18 3.76 18.79 18.79 0 0 0 10.56-3.71z"/><circle class="cls-1" cx="221.27" cy="35.26" r="2.58" transform="rotate(-9.22 221.216 35.25)"/><circle class="cls-1" cx="237.27" cy="35.26" r="2.58"/><path class="cls-2" d="M254.31 6.42l-2 1a7.43 7.43 0 0 0-3.92 4.83l-.54 2.13-1-2a7.4 7.4 0 0 0-4.84-3.91L240 7.93l2-1a7.45 7.45 0 0 0 3.92-4.83l.46-2.1 1 2a7.49 7.49 0 0 0 4.84 3.91zM260 17.81l-1.11.57a4.25 4.25 0 0 0-2.17 2.79l-.29 1.21-.57-1.1a4.21 4.21 0 0 0-2.79-2.18l-1.21-.29 1.11-.57a4.18 4.18 0 0 0 2.17-2.78l.29-1.22.57 1.11a4.26 4.26 0 0 0 2.79 2.18zm-14.35 3.47l-1.5.19a5.11 5.11 0 0 0-3.63 2.24l-.83 1.29-.18-1.5a5.12 5.12 0 0 0-2.25-3.62L236 19l1.49-.18a5.1 5.1 0 0 0 3.63-2.25l.83-1.25.19 1.49a5.09 5.09 0 0 0 2.24 3.63z"/></g><g id="logotype"><g id="住まいテラス"><path class="cls-1" d="M15.55 17.38A49.7 49.7 0 0 1 24.27 20a1 1 0 0 0 .37.08A.86.86 0 0 0 25 20a.92.92 0 0 0 .52-.54l.57-1.47a1 1 0 0 0-.55-1.27A51.9 51.9 0 0 0 16.4 14a1 1 0 0 0-1.13.67l-.47 1.51a1 1 0 0 0 .1.78 1 1 0 0 0 .65.42zM9.42 15a1 1 0 0 0-.65-.41l-1.63-.24a1 1 0 0 0-1.14.72A32.3 32.3 0 0 1 .21 28a1 1 0 0 0-.1 1.07L1 30.78a1 1 0 0 0 1.66.12.46.46 0 0 1 .55-.18.47.47 0 0 1 .35.47v11a1 1 0 0 0 1 1h1.87a1 1 0 0 0 1-1V23.31a.57.57 0 0 1 0-.18 41.2 41.2 0 0 0 2.15-7.42 1 1 0 0 0-.16-.71z"/><path class="cls-1" d="M30.22 38.82h-7.34a.5.5 0 0 1-.5-.5V32.7a.5.5 0 0 1 .5-.5h5.77a1 1 0 0 0 1-1v-1.33a1 1 0 0 0-1-1h-5.77a.5.5 0 0 1-.5-.5v-4.43a.5.5 0 0 1 .5-.5h7a1 1 0 0 0 1-1v-1.39a1 1 0 0 0-1-1H10.76a1 1 0 0 0-1 1v1.41a1 1 0 0 0 1 1H18a.5.5 0 0 1 .5.5v4.45a.5.5 0 0 1-.5.5h-6.08a1 1 0 0 0-1 1v1.35a1 1 0 0 0 1 1H18a.51.51 0 0 1 .5.5v5.62a.51.51 0 0 1-.5.5h-7.65a1 1 0 0 0-1 1v1.44a1 1 0 0 0 1 1h19.87a1 1 0 0 0 1-1V39.8a1 1 0 0 0-1-.98zM38.52 25h8.69a.79.79 0 0 0 .79-.79v-1.56a.79.79 0 0 0-.79-.79H37.8a.79.79 0 0 1-.79-.79v-1.81a.79.79 0 0 1 .79-.79h9.41a.79.79 0 0 0 .79-.79v-1.17a.79.79 0 0 1 .79-.79h2.65a.79.79 0 0 1 .79.79v1.17a.8.8 0 0 0 .79.79h6.76a.79.79 0 0 1 .79.79v1.81a.79.79 0 0 1-.79.79H53a.79.79 0 0 0-.79.79v1.57A.79.79 0 0 0 53 25h6.1a.8.8 0 0 1 .79.79v1.65a.8.8 0 0 1-.79.79H53a.79.79 0 0 0-.79.79v2.3a.8.8 0 0 0 .58.76 20.77 20.77 0 0 1 3.39 1.28A23 23 0 0 1 59 35c.7.49 1 .64.89.46v3a.79.79 0 0 1-1.25.64 31.65 31.65 0 0 0-5.3-3.1.8.8 0 0 0-1.11.73v.09a5.47 5.47 0 0 1-1.15 3.61 5 5 0 0 1-2.71 1.68 13 13 0 0 1-3.39.35 12.39 12.39 0 0 1-4.11-.67A5.93 5.93 0 0 1 38 39.88 5 5 0 0 1 37 37a5.2 5.2 0 0 1 1.31-3.53 7 7 0 0 1 3.74-2.11 15.55 15.55 0 0 1 5.09-.26.79.79 0 0 0 .85-.79V29a.79.79 0 0 0-.79-.79h-8.68a.8.8 0 0 1-.79-.79V25.8a.8.8 0 0 1 .79-.8zM45 39a4.51 4.51 0 0 0 2-.43A1.85 1.85 0 0 0 48 37v-1.74a.8.8 0 0 0-.69-.79 8.31 8.31 0 0 0-4.44.26c-1.09.5-1.66 1.16-1.71 2a2 2 0 0 0 .94 1.72A5.26 5.26 0 0 0 45 39zm24-22.08h2.66a.79.79 0 0 1 .79.85q-.12 1.68-.18 3.45c-.05 1.48-.1 3-.14 4.67s-.07 3.13-.1 4.49a24.87 24.87 0 0 0 .36 4.6 2.26 2.26 0 0 0 2.1 2h.15a7.14 7.14 0 0 0 2.93-.82l1.14-.61a.78.78 0 0 1 1.17.69v1.79a.8.8 0 0 1-.38.68 17.16 17.16 0 0 1-2 1 11.46 11.46 0 0 1-3.33.77 5.09 5.09 0 0 1-4.55-1.81Q68 36.69 68 31.63v-4.79c0-1.79 0-3.44.08-5.05 0-1.36.08-2.73.15-4.11a.8.8 0 0 1 .77-.76zm17.17 0h2.45a.8.8 0 0 1 .75.54 50.41 50.41 0 0 1 2.17 9.7 86 86 0 0 1 .6 11.9.8.8 0 0 1-.79.79H88.8a.79.79 0 0 1-.79-.8c0-1.53 0-3-.07-4.49q-.1-2.57-.46-6c-.25-2.26-.6-4.49-1-6.71a38.25 38.25 0 0 0-1-3.93.79.79 0 0 1 .71-1zM100 28.08v-1.87a.79.79 0 0 1 .79-.79h22.71a.79.79 0 0 1 .79.79v1.87a.79.79 0 0 1-.79.79h-6.89a.8.8 0 0 0-.79.68 12.86 12.86 0 0 1-2 5.65 12.67 12.67 0 0 1-3.73 3.51 18.46 18.46 0 0 1-4.49 2 22.46 22.46 0 0 1-3.66.75.79.79 0 0 1-.89-.79v-2a.8.8 0 0 1 .72-.79 15.6 15.6 0 0 0 3.77-.92 10.71 10.71 0 0 0 3.91-2.61 8.11 8.11 0 0 0 1.89-4.56.8.8 0 0 0-.79-.91h-9.84a.79.79 0 0 1-.71-.8zm1.13-8.66v-1.94a.79.79 0 0 1 .79-.79h20.53a.79.79 0 0 1 .79.79v1.94a.79.79 0 0 1-.79.79h-20.57a.79.79 0 0 1-.79-.79zm29.73 8.03V25.5a.79.79 0 0 1 .79-.79h22.56a.8.8 0 0 1 .79.84 15.49 15.49 0 0 1-1.39 5.81 12.87 12.87 0 0 1-4 5 22.16 22.16 0 0 1-5.31 3 29 29 0 0 1-5.18 1.53c-1.29.25-2.5.45-3.64.61a.79.79 0 0 1-.91-.78v-2.17a.8.8 0 0 1 .71-.79 30.33 30.33 0 0 0 3.18-.55 27.94 27.94 0 0 0 4.31-1.37 16 16 0 0 0 4.42-2.84 9 9 0 0 0 2.56-3.75.78.78 0 0 0-.75-1h-17.35a.79.79 0 0 1-.79-.8zm1.14-8.09v-1.88a.79.79 0 0 1 .79-.79h19.69a.79.79 0 0 1 .79.79v1.88a.79.79 0 0 1-.79.79h-19.71a.8.8 0 0 1-.77-.79zm30.88.26v-2a.79.79 0 0 1 .79-.79h19.22a.79.79 0 0 1 .77 1 25.61 25.61 0 0 1-2.07 5.11 43.31 43.31 0 0 1-3.59 5.7.8.8 0 0 0 0 1 46.59 46.59 0 0 0 3.5 3.65 42.8 42.8 0 0 0 3.86 3.15.81.81 0 0 1 .32.64v2.71a.79.79 0 0 1-1.22.66l-1.13-.77a40.13 40.13 0 0 1-3.77-2.92 43.71 43.71 0 0 1-4-4 .8.8 0 0 0-1.16 0 43.77 43.77 0 0 1-5 4.41 36.16 36.16 0 0 1-4.63 2.83c-.86.44-1.62.81-2.27 1.11a.79.79 0 0 1-1.11-.72v-2.34a.78.78 0 0 1 .43-.7 35.81 35.81 0 0 0 5.55-3.51 43.06 43.06 0 0 0 5.8-5.5 28.81 28.81 0 0 0 4.41-6.79.79.79 0 0 0-.71-1.14h-13.2a.79.79 0 0 1-.79-.79z"/></g><path class="cls-1" d="M50.05 51.17a3.23 3.23 0 0 0-1.23.28v-2.6a.73.73 0 0 0-.24-.56.86.86 0 0 0-.68-.17l-.69.09a.82.82 0 0 0-.78.85v7.21a3.43 3.43 0 0 0 6.86 0V54.6a3.16 3.16 0 0 0-3.24-3.43zm-1.23 2.29a2.92 2.92 0 0 1 1-.23c.69 0 1 .5 1 1.45v1.51c0 .9-.39 1.44-1 1.44s-1-.54-1-1.44zm11.72-2.1h-.8a.87.87 0 0 0-.89.84l-.65 5.23h-.26c-.31 0-.63-.13-.77-1.06l-.62-4.27a.79.79 0 0 0-.84-.74h-.83a.66.66 0 0 0-.53.23.75.75 0 0 0-.16.63l.62 4.33c.28 1.93 1.34 2.94 3.06 2.94h.05l-.33 2.39a.69.69 0 0 0 .13.58.76.76 0 0 0 .57.22h.79a.79.79 0 0 0 .85-.77l1.32-9.74a.78.78 0 0 0-.14-.6.74.74 0 0 0-.57-.21zm13.71 4.57h-.9v-3.49c0-.51-.32-.79-.91-.7l-.89.16a.87.87 0 0 0-.77 1v3h-2.4l2.08-7.07c.17-.59-.13-1-.64-1H69a1 1 0 0 0-1 .73l-2 6.76a2.73 2.73 0 0 0-.12 1.28l.1.6a1 1 0 0 0 1 .87h3.83V60c0 .51.26.83.77.79l1-.07a.84.84 0 0 0 .8-.91v-1.67h.9a.8.8 0 0 0 .85-.85v-.51a.8.8 0 0 0-.88-.85zm4.97-2.43c0-.36.19-.68.9-.68a5.23 5.23 0 0 1 1.32.17.75.75 0 0 0 1-.58l.15-.59a.85.85 0 0 0-.6-1.06 7.56 7.56 0 0 0-1.87-.22c-2.22 0-3.64 1.24-3.64 3 0 3.41 4 2.91 4 4.36 0 .43-.51.75-1.19.75a7.18 7.18 0 0 1-1.77-.22.73.73 0 0 0-1 .53l-.15.6a.83.83 0 0 0 .62 1 8.84 8.84 0 0 0 2.3.34c2.62 0 3.91-1.51 3.91-3.08.02-3.49-3.98-2.91-3.98-4.32zm9.53-2.96a3.85 3.85 0 0 0-4 4.17v1.92c0 2.78 1.77 4.27 4.41 4.27a8.11 8.11 0 0 0 2.44-.32.88.88 0 0 0 .58-1.12l-.18-.54a.72.72 0 0 0-1-.55 8.12 8.12 0 0 1-1.91.24c-1.15 0-1.73-.64-1.73-2v-.11h4.53a.8.8 0 0 0 .85-.85v-1.3a3.85 3.85 0 0 0-3.99-3.81zm1.34 4.07h-2.68v-.26a1.39 1.39 0 0 1 1.34-1.53 1.37 1.37 0 0 1 1.34 1.53zm8.07-4.07a10.23 10.23 0 0 0-2.49.39.88.88 0 0 0-.6 1.08l.13.47a.78.78 0 0 0 1 .6 8.51 8.51 0 0 1 1.94-.26c.78 0 1.23.49 1.23 1.4v.22h-1.21c-2.26 0-3.85 1-3.85 3.06s1.69 3.4 3.89 3.4a3.66 3.66 0 0 0 3.89-3.4v-3.28a3.62 3.62 0 0 0-3.93-3.68zm1.23 7a1.14 1.14 0 0 1-1.19 1.11 1.07 1.07 0 0 1-1.15-1.13 1 1 0 0 1 1.1-1.15h1.24zm7.15-4.04c0-.36.19-.68.91-.68a5.23 5.23 0 0 1 1.32.17.75.75 0 0 0 1-.58l.15-.59a.87.87 0 0 0-.6-1.06 7.63 7.63 0 0 0-1.87-.22c-2.23 0-3.64 1.24-3.64 3 0 3.41 4 2.91 4 4.36 0 .43-.51.75-1.19.75a7.27 7.27 0 0 1-1.78-.22.73.73 0 0 0-1 .53l-.15.6a.83.83 0 0 0 .63 1 8.84 8.84 0 0 0 2.3.34c2.62 0 3.9-1.51 3.9-3.08.02-3.49-3.98-2.91-3.98-4.32zm9.72-2.96a4 4 0 0 0-4.21 4.32v1.71a4.21 4.21 0 1 0 8.42 0v-1.71a4 4 0 0 0-4.21-4.32zm1.53 5.94c0 1.3-.4 2.13-1.53 2.13s-1.53-.83-1.53-2.13V55c0-1.3.38-2.13 1.53-2.13s1.53.83 1.53 2.13zm8.78-5.94a3.86 3.86 0 0 0-4.06 4.15v5.11a.8.8 0 0 0 .85.85h1a.8.8 0 0 0 .85-.85v-5c0-1.3.53-2 1.38-2s1.34.66 1.34 2v5a.8.8 0 0 0 .85.85h1a.8.8 0 0 0 .84-.85v-5.11a3.86 3.86 0 0 0-4.05-4.15zm8.72 2.96c0-.36.18-.68.9-.68a5.23 5.23 0 0 1 1.32.17.75.75 0 0 0 1-.58l.15-.59a.86.86 0 0 0-.6-1.06 7.56 7.56 0 0 0-1.87-.22c-2.23 0-3.64 1.24-3.64 3 0 3.41 4 2.91 4 4.36 0 .43-.51.75-1.19.75a7.11 7.11 0 0 1-1.77-.22.73.73 0 0 0-1 .53l-.15.6a.82.82 0 0 0 .62 1 8.84 8.84 0 0 0 2.3.34c2.62 0 3.91-1.51 3.91-3.08.02-3.49-3.98-2.91-3.98-4.32z" id="by_4seasons" data-name="by 4seasons"/></g></g></g></g></svg>