<svg xmlns="http://www.w3.org/2000/svg" width="60" height="51.302" viewBox="0 0 60 51.302"><g transform="translate(-100 -5160)"><rect width="3.682" height="51.302" rx="0.859" transform="translate(100 5160)" fill="#22819e"/><path d="M79.82,51.921a2.178,2.178,0,0,1-.644,1.428l-9.788,8.64c-.355.313-.644.182-.644-.29V50.859A.861.861,0,0,0,67.885,50H65.92a.861.861,0,0,0-.859.859v49.585a.861.861,0,0,0,.859.858h1.965a.861.861,0,0,0,.859-.858V66.149a2.173,2.173,0,0,1,.644-1.427l9.788-8.641c.354-.312.644-.181.644.291v44.072a.861.861,0,0,0,.859.858h1.965a.861.861,0,0,0,.859-.858V50.859A.861.861,0,0,0,82.644,50H80.679a.861.861,0,0,0-.859.859Z" transform="translate(50 5110)" fill="#22819e"/><path d="M109.141,52.793a.861.861,0,0,0,.859-.859V50.859a.861.861,0,0,0-.859-.859H95.687a.861.861,0,0,0-.858.859v49.585a.86.86,0,0,0,.858.858h13.454a.861.861,0,0,0,.859-.859V99.368a.861.861,0,0,0-.859-.859H99.37a.861.861,0,0,1-.859-.859V77.534a.861.861,0,0,1,.859-.858h8.345a.861.861,0,0,0,.859-.859v-.331a.861.861,0,0,0-.859-.859H99.37a.862.862,0,0,1-.859-.859V53.652a.861.861,0,0,1,.859-.859Z" transform="translate(50 5110)" fill="#22819e"/></g></svg>