<?xml version="1.0" encoding="utf-8"?>
<!-- Generator: Adobe Illustrator 23.0.6, SVG Export Plug-In . SVG Version: 6.00 Build 0)  -->
<svg version="1.1" id="レイヤー_1" xmlns="http://www.w3.org/2000/svg" xmlns:xlink="http://www.w3.org/1999/xlink" x="0px"
	 y="0px" viewBox="0 0 329.58 66.08" style="enable-background:new 0 0 329.58 66.08;" xml:space="preserve">
<style type="text/css">
	.st0{fill:#828282;}
</style>
<g>
	<g>
		<g>
			<path class="st0" d="M321.62,0.5c0.67-0.66,1.76-0.66,2.42,0.01l5.03,5.03c0.66,0.66,0.67,1.74,0.02,2.41l-12.66,13.07
				c-0.46,0.47-0.58,1.14-0.4,1.71c0.03,0.09,0.08,0.19,0.12,0.28l0,0c1.75,3.83,2.75,8.54,2.75,14.21
				c0,19.46-11.73,27.59-25.33,27.59h-46.39c-13.6,0-25.33-8.13-25.33-27.59c0-19.46,11.73-27.59,25.33-27.59h46.39
				c4.95,0,9.65,1.08,13.63,3.39l0,0c0.53,0.32,1.42,0.35,2.06-0.29L321.62,0.5z M293.57,20.42h-46.39c-7.46,0-15.6,4.8-15.6,16.8
				s8.13,16.8,15.6,16.8h46.39c7.46,0,15.6-4.8,15.6-16.8S301.04,20.42,293.57,20.42z"/>
		</g>
	</g>
	<g>
		<path class="st0" d="M29.7,49.24c0,11.67-7.07,15.56-16.13,15.56H1.02C0.46,64.81,0,64.35,0,63.78V10.64
			c0-0.56,0.46-1.02,1.02-1.02h11.37c8.65,0,15.8,3.73,15.8,14.7c0,4.84-1.59,8.41-4.44,11.19c-0.24,0.24-0.4,0.48-0.4,0.79
			c0,0.32,0.16,0.64,0.48,0.87C27.4,39.62,29.7,43.36,29.7,49.24 M6.51,32.81c0,0.57,0.45,1.03,1.02,1.03h4.86
			c4.6,0,9.05-1.59,9.05-9.29c0-7.22-4.61-9.13-9.13-9.13H7.54c-0.56,0-1.02,0.46-1.02,1.02V32.81z M6.51,58.07
			c0,0.57,0.45,1.02,1.02,1.02h5.73c4.68,0,9.53-1.5,9.53-9.84c0-9.05-5.72-9.62-10.33-9.62H7.54c-0.57,0-1.02,0.45-1.02,1.03V58.07
			z"/>
		<path class="st0" d="M83.24,63.52c0.17,0.65-0.32,1.29-0.99,1.29h-4.59c-0.55,0-0.96-0.33-1.08-0.83
			c-0.12-0.49-3.29-12.76-3.29-12.76c-0.16-0.48-0.32-0.72-0.96-0.72H59.47c-0.64,0-0.79,0.24-0.95,0.72c0,0-3.17,12.26-3.29,12.76
			c-0.13,0.5-0.52,0.83-1.08,0.83h-4.58c-0.67,0-1.16-0.63-1-1.29l13.76-53.2c0.16-0.48,0.48-0.71,1.11-0.71h4.93
			c0.63,0,0.95,0.24,1.11,0.71L83.24,63.52z M70.45,44.71c0.66,0,1.15-0.62,0.99-1.27l-4.5-18.59c-0.08-0.48-0.41-0.95-1.02-0.95
			c-0.61,0-0.95,0.48-1.03,0.95l-4.5,18.59c-0.16,0.65,0.32,1.27,0.99,1.27H70.45z"/>
		<path class="st0" d="M127.87,23.43c-0.8,0-1.19-0.39-1.19-1.11c0-4.05-2.86-8.25-9.45-8.25c-4.84,0-8.26,3.25-8.26,7.62
			c0,2.39,0.96,4.77,2.94,6.56l16.04,13.73c3.18,2.78,4.61,5.84,4.61,10.68c0,9.45-6.91,13.43-15.73,13.43
			c-9.21,0-16.16-5.33-16.16-13.91c0-0.86,0.32-1.26,1.11-1.26h4.17c0.8,0,1.19,0.4,1.19,1.11c0,4.05,3.73,8.25,9.53,8.25
			c5.32,0,9.22-2.22,9.22-7.38c0-3.49-1.59-5.2-3.26-6.63l-14.69-12.55c-3.73-3.18-5.8-6.7-5.8-11.86c0-7.95,6.43-13.59,15.01-13.59
			c10.01,0,16.01,5.64,16.01,13.91c0,0.87-0.32,1.26-1.12,1.26H127.87z"/>
		<path class="st0" d="M182.31,14.54c0,0.57-0.46,1.03-1.02,1.03h-16.54c-0.57,0-1.02,0.46-1.02,1.02v16.22
			c0,0.57,0.46,1.03,1.02,1.03h14.39c0.56,0,1.02,0.46,1.02,1.02v3.67c0,0.61-0.49,1.1-1.1,1.1h-14.31c-0.57,0-1.02,0.46-1.02,1.03
			v17.33c0,0.56,0.46,1.03,1.02,1.03h16.54c0.57,0,1.02,0.45,1.02,1.02v3.75c0,0.57-0.46,1.03-1.02,1.03h-23.05
			c-0.57,0-1.02-0.46-1.02-1.03V10.63c0-0.56,0.46-1.02,1.02-1.02h23.05c0.57,0,1.02,0.46,1.02,1.02V14.54z"/>
	</g>
</g>
</svg>
