<svg id="デザイン" xmlns="http://www.w3.org/2000/svg" viewBox="0 0 260 72"><defs><style>.cls-1{fill:#fff;}</style></defs><title>logo_04_wh</title><path class="cls-1" d="M81.52,45.42a60.69,60.69,0,0,0-9.29-9.34l1-.94A61.06,61.06,0,0,1,78,39.46a57.63,57.63,0,0,0,8.11-9.36H69.53V28.77H87.14l1.14.8A69.1,69.1,0,0,1,79,40.44a52.79,52.79,0,0,1,3.7,4.09Z"/><path class="cls-1" d="M98.4,27.13v10.8H97V27.13Zm10.94-.27v8.49c0,4.73-2.28,8.26-7.4,10.37L101,44.53c4.93-1.92,6.87-5,6.87-9.2V26.86Z"/><path class="cls-1" d="M125.7,35V29.39h-5.81V28.11h15.9v1.28h-8.7V35h10v1.3h-10V41c0,2.08.64,2.67,2.88,2.79.55,0,1.64,0,2.81,0,1.35,0,2.67,0,3.56-.09v1.33c-1,0-2.49.06-3.93.06-1,0-2,0-2.58,0-3.08-.11-4.13-1.19-4.13-4V36.26h-7V35Z"/><path class="cls-1" d="M164.47,31.07v1.08H143.69V31.07Zm-2.76,14V33.6H163V46.2H145.15V33.6h1.26V45.12Z"/><path class="cls-1" d="M201.43,37.34A1.35,1.35,0,1,1,202.81,36a1.36,1.36,0,0,1-1.38,1.35Z"/><path class="cls-1" d="M242.86,44.55V34.25h1.3v10.3H249V28.05h-8.93V26.82h18.95v1.23h-8.68v7.06h8.06v1.21h-8.06v8.23h9.55v1.23H239.2V44.55Z"/><path class="cls-1" d="M176.63,34v-.83h3.75V32h-3.75V28.05l3.17-.23-.08-1.14-8.48.63.08,1.14,4-.3V32h-4.46v1.16h4.34a82.6,82.6,0,0,1-4.48,8.18l1,.68c1.12-1.8,2.28-3.88,3.58-6.41V46.4h1.3V35.53c1.1,1.37,2.13,2.57,2.79,3.58l.91-.75C179.48,37.31,178,35.4,176.63,34Zm12,4.59V26.11H187.3V46.38h1.32V38.55Zm-2.85-7.89-3.45-3.36-.79.81L185,31.47Zm0,5.72L182.32,33l-.79.82L185,37.19Z"/><rect class="cls-1" x="149.7" y="41.82" width="8.76" height="1.06"/><rect class="cls-1" x="147.48" y="37.15" width="13.2" height="1.06"/><rect class="cls-1" x="154.08" y="27.68" width="8.11" height="1.06"/><rect class="cls-1" x="157.85" y="34.44" width="1.16" height="8.44"/><rect class="cls-1" x="149.14" y="27.55" width="1.16" height="15.33"/><rect class="cls-1" x="153.44" y="25.6" width="1.29" height="17.28"/><path class="cls-1" d="M224.52,27.6s0-.05,0-.08S224.56,27.53,224.52,27.6Zm-8.88,10.54c.14-.77.16-1.54.23-2.38h3v-1.1H216c.12-1.62.16-3.33.21-5.14h2.51V28.45h-5.34l.28-2.72-1.06-.11L211.79,33l1.07.11.37-3.54H215c0,1.83,0,3.54-.16,5.14h-3.63v1.1h3.54A19.67,19.67,0,0,1,211,45.4l1,.68a23.78,23.78,0,0,0,3.21-6.63c1,1.62,1.89,3,2.6,4.33l1-.61c-.89-1.51-1.86-3-3.24-5Zm12.21-8h4.41v-1H225c.28-.57.47-1.17.69-1.73v0l5.12-.27-.06-1-10.46.56,0,1,4.18-.23v0c0,.07-.49,1.22-.73,1.68h-4.4v1h3.81a9.71,9.71,0,0,1-4.42,3.47l.54.92a12.27,12.27,0,0,0,2.46-1.4V35.8h7.57V33.06a13.74,13.74,0,0,0,2.68,1.41l.51-1A10.45,10.45,0,0,1,227.85,30.18Zm-3.33,0h2.15a8.85,8.85,0,0,0,1.3,1.69h-4.71A9.63,9.63,0,0,0,224.52,30.18Zm3.72,4.69h-5.32V32.81h5.32Zm-8.65,11.51h1.21V38.09h9.61v8.29h1.21V37.11h-12ZM222.67,44h5.82V39.86h-5.82Zm1-3.18h3.86V43h-3.86Z"/><rect class="cls-1" x="179.95" y="39.68" width="11.87" height="1.27" transform="translate(-2.99 17.86) rotate(-5.46)"/><path class="cls-1" d="M35.3,21.92a1.67,1.67,0,0,1-.53-.08,1.44,1.44,0,0,1-.48-.24,1.52,1.52,0,0,1-.39-.36,1.29,1.29,0,0,1-.24-.45,2.79,2.79,0,0,1-.09-.51c0-.14,0-.31,0-.51s0-.32,0-.51,0-.36,0-.51,0-.37,0-.51a2.43,2.43,0,0,1,.1-.5,1.37,1.37,0,0,1,.23-.45,1.7,1.7,0,0,1,.38-.38,1.52,1.52,0,0,1,.48-.22,1.74,1.74,0,0,1,.53-.08,1.49,1.49,0,0,1,.47.07,1.56,1.56,0,0,1,.43.21,1.37,1.37,0,0,1,.2.13s.08.1.14.08,0-.05,0-.1v-.79c0-.25,0-.25,0-.49v-.49c0-.24,0-.24,0-.48a.16.16,0,0,1,.15-.16h.79a.16.16,0,0,1,.15.16c0,.25,0,.25,0,.49v.5c0,.25,0,.25,0,.5s0,.25,0,.49,0,.25,0,.5,0,.25,0,.5,0,.25,0,.5,0,.24,0,.49,0,.2,0,.5v.5c0,.16,0,.33,0,.49s0,.34,0,.5,0,.35,0,.5,0,.25,0,.5a.15.15,0,0,1-.14.15h-.79c-.2,0-.16-.22-.17-.34s0-.07,0-.08-.11.07-.14.1l-.19.13a2.44,2.44,0,0,1-.44.19A2,2,0,0,1,35.3,21.92Zm.31-4.22a1.07,1.07,0,0,0-.51.11.74.74,0,0,0-.35.39,2,2,0,0,0-.1.52,4.7,4.7,0,0,0,0,.54c0,.19,0,.36,0,.53a1.91,1.91,0,0,0,.11.52.79.79,0,0,0,.33.41,1.08,1.08,0,0,0,.52.12,1,1,0,0,0,.51-.14.81.81,0,0,0,.34-.39,2,2,0,0,0,.1-.52c0-.17,0-.35,0-.53a4.68,4.68,0,0,0,0-.53,2,2,0,0,0-.11-.52.78.78,0,0,0-.35-.39,1,1,0,0,0-.5-.12Z"/><path class="cls-1" d="M42.16,19.18H42c-.16,0-.33,0-.49,0h-.07a.15.15,0,0,1-.15-.15s0,0,0-.07V17.2a.49.49,0,0,0-.5-.44.5.5,0,0,0-.52.44c0,.3,0,.3,0,.59s0,.29,0,.59,0,.29,0,.58V19a.16.16,0,0,1-.15.16h-.73a.14.14,0,0,1-.14-.15s0,0,0-.07,0-.26,0-.52v-.51c0-.26,0-.26,0-.52s0-.26,0-.52v-.52c0-.25,0-.25,0-.51s0-.26,0-.52v-.52s0,0,0-.07a.15.15,0,0,1,.15-.14h.73a.15.15,0,0,1,.14.15s0,0,0,.07c0,.21,0,.21,0,.43s0,.21,0,.43a1.41,1.41,0,0,0,0,.29c0,.08,0,.07.1,0a1.25,1.25,0,0,1,.24-.16,1.08,1.08,0,0,1,.42-.09,1.15,1.15,0,0,1,.48.1,1.39,1.39,0,0,1,.41.27,1.15,1.15,0,0,1,.28.4,1.21,1.21,0,0,1,.1.48s0,.25,0,.49,0,.25,0,.49v.49c0,.25,0,.25,0,.49,0,0,0,0,0,.07S42.24,19.17,42.16,19.18Z"/><path class="cls-1" d="M42.18,21.8H39.36a.15.15,0,0,1-.14-.15c0-.37,0-.37,0-.73a.15.15,0,0,1,.15-.15h2.82a.15.15,0,0,1,.15.15v.73C42.33,21.75,42.26,21.78,42.18,21.8Z"/><path class="cls-1" d="M31.49,27.65c-.24,0-.24,0-.48,0H29.57a.28.28,0,0,1-.28-.29c0-.26,0-.26,0-.51s0-.25,0-.5,0-.26,0-.51c0,0,0-.25,0-.5s-.05-.25-.05-.51,0-.25,0-.5V22.79c0-.26,0-.26,0-.51s0-.25,0-.5,0-.26,0-.51c0-.06,0-.28-.09-.24s-.09.17-.12.23c-.1.24-.09.24-.2.49s-.12.23-.23.47-.12.24-.23.48c0,0-.08.26-.18.5s-.11.24-.21.48-.13.24-.23.48-.12.24-.22.48-.07.27-.17.51-.11.24-.21.49a.33.33,0,0,1-.3.17c-.26,0-.26,0-.53,0h-.53c-.27,0-.27,0-.53,0a.29.29,0,0,1-.26-.19c-.1-.24-.13-.23-.24-.47s-.08-.26-.19-.5-.12-.23-.22-.48-.12-.24-.23-.48-.1-.24-.21-.48-.07-.26-.17-.51-.11-.24-.21-.48-.13-.24-.23-.48-.09-.25-.19-.5c0-.07,0-.18-.11-.23s-.13.17-.14.25,0,.34,0,.51,0,.26,0,.51,0,.25,0,.5v.51c0,.25,0,.25,0,.5,0,0,0,.25,0,.51s0,.25,0,.5v.51c0,.25,0,.25,0,.5s0,.25,0,.51,0,.25,0,.5,0,.25,0,.51a.27.27,0,0,1-.29.27h-1c-.24,0-.24,0-.48,0H20.7a.32.32,0,0,1-.3-.31c0-.26,0-.26,0-.51s0-.26,0-.51,0-.25,0-.51a3.63,3.63,0,0,0,0-.5c0-.26,0-.26,0-.51v-1c0-.25,0-.18,0-.51,0-.14,0-.31,0-.5s0-.33,0-.51v-.51c0-.16,0-.33,0-.51s0-.33,0-.5,0-.34,0-.51,0-.34,0-.51,0-.34,0-.51,0-.34,0-.51,0-.34,0-.51,0-.34,0-.5v-.51c0-.18,0-.35,0-.51s0-.35,0-.51,0-.35,0-.51,0-.36,0-.5c0-.32,0-.26,0-.51a.35.35,0,0,1,.32-.33h.45l.46,0c.22,0,.22,0,.45,0s.23,0,.45,0a.31.31,0,0,1,.29.18c.11.24.08.25.19.49s.12.23.22.47.1.24.2.48.11.24.21.48.09.25.19.48.13.23.24.47l.2.48.2.48c.11.24.1.24.2.48s.13.23.23.47.1.24.21.48.11.23.21.47c0,0,.09.25.2.49s.1.24.21.47a4.73,4.73,0,0,1,.2.47c0,.09.1.27.22.27s.19-.19.23-.28l.06-.15.12-.3c.06-.14.1-.31.18-.49s.15-.3.22-.47.15-.31.22-.47.11-.32.18-.49l.21-.48c.06-.15.17-.3.24-.46s.11-.33.18-.49l.2-.48.2-.48c.07-.16.13-.32.19-.48s.15-.32.21-.48.18-.31.24-.46l.21-.47c.12-.3.2-.48.2-.48a.29.29,0,0,1,.26-.19c.22,0,.22,0,.45,0s.23,0,.45,0H31l.46,0a.32.32,0,0,1,.32.3v.51a3.63,3.63,0,0,0,0,.5c0,.26,0,.26,0,.51,0,0,0,.26,0,.51s0,.25,0,.51,0,.25,0,.5,0,.26,0,.51,0,.26,0,.51,0,.25,0,.51,0,.25,0,.51,0,.25,0,.5v.51c0,.26,0,.26,0,.51s0,.25,0,.51c0,0,0,.25,0,.51s0,.25,0,.5,0,.26,0,.51v.51c0,.25,0,.25,0,.51s0,.25,0,.5,0,.26,0,.51,0,.26,0,.51,0,.25,0,.51,0,.25,0,.51,0,.25,0,.51a.33.33,0,0,1-.3.32Z"/><path class="cls-1" d="M4.82,20.67s.28-.28.57-.52L6,19.67c.29-.24.31-.22.61-.46s.26-.27.55-.52.25-.12.63-.43c.17-.13.35-.3.58-.49l.59-.48c.18-.15.35-.34.56-.51s.42-.26.63-.43.36-.35.56-.51.4-.29.61-.46.4-.29.6-.46.35-.37.55-.53.43-.26.63-.42.38-.33.58-.5l.59-.47c.2-.16.36-.37.56-.53s.43-.27.63-.43l.58-.48c.2-.16.37-.35.57-.51s.42-.28.62-.44.37-.35.56-.51l.58-.49.59-.48.59-.49c.19-.16.42-.29.61-.45l.59-.48.59-.49.61-.46c.2-.16.34-.39.53-.55l.6-.47.6-.47c.19-.16.41-.3.6-.46l.59-.48.59-.48c.2-.16.43-.29.62-.44l.59-.48.57-.51.58-.49c.21-.17.38-.36.56-.52S28.79,1.1,29,1l.58-.48c.17-.14.33-.49.58-.48s.46.31.64.46.28.25.58.49.27.27.56.51.33.2.62.44.19.2.57.51c.16.13.38.26.61.45s.37.32.58.49.39.3.59.47.36.35.56.52.41.28.62.45.35.36.55.52.42.28.62.44.36.36.55.52l.6.47.6.47c.19.16.38.34.58.5s.42.27.62.43.37.34.57.51.37.34.57.5.43.28.62.44l.6.47.59.48.58.49.59.48.58.49c.2.16.38.34.58.5s.4.3.6.46.42.3.62.46l.58.49.59.48c.19.16.34.38.54.54s.45.25.65.41l.57.5c.2.16.35.37.55.53s.43.27.63.43.38.34.58.49.39.34.58.49.4.32.59.47.44.29.62.45l.59.48c.21.17.4.35.58.49s.38.4.55.53.45.28.44.49-.09.14-.14.19a2.09,2.09,0,0,1-.28.24l-.61.47c-.29.24-.25.29-.54.53s-.31.22-.61.46l-.59.48c-.29.24-.28.26-.57.5s-.32.21-.62.45-.27.27-.56.51l-.59.49-.59.47L49,26l-.59.48c-.29.24-.33.19-.62.43s-.31.23-.6.47l-.59.48-.59.49c-.29.24-.27.26-.56.5l-.6.48c-.29.24-.19.19-.57.5l-.59.47c-.18.15-.41.27-.62.45s-.36.34-.57.51-.41.29-.61.45-.36.35-.56.52-.39.32-.59.48l-.59.48-.58.49c-.19.16-.42.28-.62.44s-.37.36-.56.52l-.6.48c-.19.16-.41.29-.61.45l-.6.48c-.19.16-.42.28-.61.44l-.6.49c-.2.16-.36.36-.55.52s-.39.34-.58.5-.43.29-.63.44l-.59.48c-.2.17-.37.37-.56.52s-.46.28-.64.42-.38.4-.55.53c-.37.31-.28.25-.58.49-.06,0-.1.12-.16.17a1.24,1.24,0,0,1-.23.12s-.14.11-.2.1-.12-.09-.15-.12-.26-.23-.4-.34-.31-.21-.61-.45-.26-.28-.56-.52-.34-.18-.63-.42l-.59-.48c-.29-.24-.27-.27-.57-.51s-.3-.22-.59-.46l-.59-.49c-.17-.13-.35-.31-.57-.49s-.37-.32-.59-.49-.42-.25-.63-.42-.35-.36-.55-.53l-.59-.47c-.19-.16-.43-.27-.63-.44s-.34-.38-.54-.54l-.59-.47-.6-.48-.58-.49c-.2-.15-.43-.27-.63-.43l-.58-.49c-.19-.16-.36-.36-.56-.52s-.44-.26-.63-.42l-.58-.49c-.2-.16-.38-.34-.57-.5l-.6-.48-.58-.49c-.2-.16-.37-.34-.57-.5s-.44-.27-.63-.43-.41-.31-.6-.47-.38-.34-.58-.5-.35-.38-.54-.54-.43-.28-.63-.44l-.58-.48c-.2-.17-.42-.3-.61-.46s-.41-.31-.6-.47S9.16,24.12,9,24s-.45-.26-.64-.42S8,23.19,7.77,23s-.39-.34-.58-.49-.45-.27-.64-.42-.36-.39-.54-.54-.47-.29-.63-.42a3.39,3.39,0,0,1-.53-.51S4.82,20.67,4.82,20.67Zm2.78,0c.3.24.32.21.62.45l.59.48c.3.24.26.28.56.53s.34.18.63.43l.6.48c.29.24.27.27.56.51s.34.2.63.44.24.31.54.55.32.21.62.46.32.21.61.45.26.29.55.54l.61.47c.29.24.33.19.62.43s.26.29.56.53l.6.47c.3.24.28.26.58.51s.31.22.61.46l.58.49c.3.24.29.25.58.49s.32.22.62.46.28.26.57.5.34.2.63.44.27.27.57.51l.59.49.59.49a6,6,0,0,1,.62.44c.3.25.27.29.56.53l.61.47c.29.24.32.21.62.45s.28.26.58.5.27.27.57.51.34.19.64.43a3.73,3.73,0,0,0,.54.55l.6.48c.29.24.28.25.58.49s.33.21.62.45.31.23.61.47l.34.31c.06.07.13.18.23.17a.62.62,0,0,0,.29-.15l.33-.29c.3-.24.27-.27.57-.51s.33-.2.63-.44.24-.3.54-.54.32-.21.62-.45l.59-.49c.3-.24.23-.16.61-.47.16-.13.35-.31.58-.49s.4-.28.61-.46l.59-.49c.19-.15.37-.33.57-.5l.6-.48c.19-.16.37-.34.57-.5s.42-.29.62-.46l.59-.49c.19-.16.35-.36.55-.52s.45-.26.65-.42.35-.37.55-.54l.61-.46c.2-.16.42-.29.62-.45l.59-.49.59-.49c.19-.16.35-.38.54-.54s.46-.25.65-.41.35-.38.55-.54.45-.26.65-.42.38-.35.57-.51.4-.32.6-.48.38-.35.58-.51l.61-.46.59-.49c.2-.17.37-.36.56-.52s.44-.28.64-.43l.59-.48.59-.49.59-.49c.26-.21.48-.47.74-.69a.67.67,0,0,0,.22-.25c.05-.12,0-.2-.13-.26l-.28-.23c-.3-.24-.27-.27-.57-.51s-.31-.23-.6-.47l-.59-.49c-.29-.24-.31-.22-.61-.46s-.27-.28-.57-.52-.31-.22-.61-.46l-.59-.48c-.3-.24-.25-.3-.54-.54s-.36-.17-.65-.42-.29-.26-.58-.5-.29-.25-.58-.49-.32-.22-.61-.46-.25-.3-.54-.55-.32-.21-.62-.45-.31-.23-.6-.47l-.61-.47c-.29-.24-.27-.26-.57-.5s-.32-.22-.62-.46-.26-.28-.55-.52-.34-.2-.63-.44-.27-.28-.56-.53l-.6-.47c-.3-.24-.29-.26-.58-.5s-.34-.19-.64-.43-.25-.3-.55-.54-.31-.22-.61-.46-.29-.25-.58-.49-.28-.27-.58-.51-.36-.17-.65-.41-.25-.31-.54-.55l-.59-.49c-.3-.24-.31-.22-.61-.46s-.28-.26-.58-.5-.33-.2-.63-.44-.27-.28-.57-.52S31,3,30.85,2.91a6.52,6.52,0,0,0-.72-.43c-.19-.1-.41.23-.54.33-.29.25-.35.17-.65.41s-.24.32-.53.56-.36.17-.66.41a6.63,6.63,0,0,1-.55.52l-.6.49c-.29.24-.32.2-.62.44l-.59.49c-.29.24-.26.28-.56.53l-.59.47c-.3.25-.3.24-.6.48s-.33.2-.63.44-.24.31-.54.55a4.92,4.92,0,0,0-.63.42c-.3.25-.31.23-.61.47,0,0-.27.27-.57.51s-.28.26-.57.5-.32.22-.61.47-.27.28-.56.52-.33.2-.63.44-.3.23-.6.47-.28.26-.58.5-.28.26-.58.5-.29.25-.58.49l-.59.5c-.3.24-.32.2-.62.45s-.31.22-.61.46-.27.28-.56.52-.28.26-.58.5-.34.19-.64.44l-.58.49c-.3.24-.28.26-.58.5s-.33.19-.63.44-.28.26-.58.5-.27.27-.57.52-.28.26-.58.5l-.59.48c-.3.25-.33.22-.62.46Z"/><path class="cls-1" d="M9.88,59.67H8.56a.36.36,0,0,1-.25-.1.39.39,0,0,1-.1-.25c0-.15,0-.15,0-.3s0-.15,0-.31v-.3c0-.15,0-.15,0-.3,0,0,0-.15,0-.3s0-.15,0-.3,0-.15,0-.3v-.3c0-.15,0-.15,0-.3V56c0-.15,0-.15,0-.3s0-.26-.07-.16,0,.1-.06.14L8,56c-.06.14-.07.14-.13.27s0,.15-.11.29l-.12.28c-.06.13-.07.13-.13.27s-.05.15-.11.28-.07.14-.13.28,0,.14-.11.28-.07.13-.13.27a.35.35,0,0,1-.31.21H5.57a.36.36,0,0,1-.32-.21c-.06-.14,0-.14-.11-.28L5,57.64c0-.08-.07-.18-.12-.28l-.13-.27c0-.09-.07-.19-.11-.29l-.13-.27-.12-.28L4.29,56c0-.1-.09-.2-.12-.28s0-.17-.08-.18,0,0,0,.06a.71.71,0,0,0,0,.14v.61s0,.15,0,.3,0,.15,0,.3,0,.15,0,.3,0,.15,0,.3,0,.15,0,.3,0,.15,0,.3v.3c0,.15,0,.15,0,.3s0,.16,0,.31v.3a.35.35,0,0,1-.1.24.36.36,0,0,1-.24.11H2.37A.34.34,0,0,1,2,59.33V59s0-.15,0-.3,0-.11,0-.31v-.3c0-.1,0-.2,0-.31V56.58c0-.1,0-.2,0-.31V56c0-.1,0-.2,0-.31s0-.2,0-.3v-.31c0-.1,0-.2,0-.3V53.22c0-.1,0-.2,0-.3v-.31c0-.1,0-.21,0-.3S2,52.1,2,52s0-.21,0-.3v-.31c0-.11,0-.21,0-.31s0-.22,0-.3,0-.31,0-.31a.37.37,0,0,1,.1-.24.36.36,0,0,1,.24-.11c.16,0,.16,0,.32,0h.94a.33.33,0,0,1,.31.21,2.37,2.37,0,0,1,.14.27c.06.14,0,.15.11.29l.13.27a2.93,2.93,0,0,0,.12.28l.12.28c0,.09.07.19.12.29s.09.17.13.27.07.19.11.29l.12.28c0,.09.1.18.14.27l.12.28.12.28.12.29.13.27.12.28c0,.1.08.2.11.29L6,55l0,.08s0,.06,0,.08l0,.05s0,.09.07.09,0,0,0,0a.21.21,0,0,0,0-.06l0,0a.09.09,0,0,0,0-.06l.12-.28.12-.29c.06-.14,0-.1.13-.27l.1-.29a2.51,2.51,0,0,0,.13-.28c0-.08.09-.17.13-.27s.07-.19.11-.29.07-.18.11-.28.1-.18.14-.27.07-.19.11-.28.09-.19.13-.28.07-.19.11-.28.09-.19.13-.28L8,51.18c0-.1.07-.2.11-.28s.08-.21.12-.29a2.21,2.21,0,0,1,.13-.27.33.33,0,0,1,.31-.21H9.89a.33.33,0,0,1,.24.1.32.32,0,0,1,.11.24s0,.16,0,.31,0,.11,0,.3,0,.19,0,.31V52c0,.1,0,.2,0,.3s0,.2,0,.31v.61c0,.1,0,.2,0,.31s0,.2,0,.3,0,.2,0,.31,0,.2,0,.3v.31c0,.1,0,.2,0,.3v1.22c0,.11,0,.21,0,.31s0,.2,0,.31v.3c0,.1,0,.21,0,.31s0,.2,0,.3v.61c0,.11,0,.21,0,.31s0,.22,0,.3,0,.31,0,.31a.35.35,0,0,1-.1.24.34.34,0,0,1-.24.11Z"/><path class="cls-1" d="M20.83,59.68H19.42a.35.35,0,0,1-.33-.23c-.05-.14,0-.14-.09-.29s-.06-.14-.11-.29l-.1-.29c-.05-.15,0-.15-.09-.29a4.83,4.83,0,0,0-.23-.52c-.06-.1-.2-.06-.29-.06H16.91c-.16,0-.13,0-.32,0H16a.61.61,0,0,0-.27,0c-.1,0-.12.18-.15.28s0,.14-.09.29-.06.14-.11.29l-.1.29c-.05.14,0,.15-.09.29s-.06.14-.11.29a.33.33,0,0,1-.32.23H13.31a.33.33,0,0,1-.28-.16.35.35,0,0,1,0-.31c0-.14.06-.14.12-.28s0-.15.09-.29.06-.14.11-.28,0-.15.09-.3.06-.13.12-.28,0-.1.09-.29l.11-.28.1-.29c0-.09.07-.18.1-.28s.06-.19.1-.29.08-.18.11-.28.06-.19.1-.29.08-.18.11-.28a2.46,2.46,0,0,0,.09-.29c0-.1.09-.19.12-.28s.05-.2.09-.29.09-.19.12-.28a2.47,2.47,0,0,1,.1-.29c0-.1.06-.19.1-.29s.06-.19.1-.28.08-.19.11-.29.07-.19.11-.28.06-.19.1-.29l.1-.28c0-.1.06-.2.1-.29a2.47,2.47,0,0,1,.1-.29c0-.1.08-.19.11-.28s.07-.2.1-.29.07-.2.1-.28l.11-.29c.06-.18,0-.14.09-.29a.37.37,0,0,1,.33-.23h1.12a.35.35,0,0,1,.32.22l.1.29.1.29.1.28.1.29c.06.14.06.14.11.28l.12.29c.05.14,0,.1.1.28l.1.29.1.29c0,.08.06.18.1.28s.08.18.11.28.06.2.09.29l.12.29c0,.09.07.18.1.28s.06.19.1.29l.1.28.11.29c0,.09.06.19.1.29l.1.28c0,.1.07.19.1.29s.08.19.11.28.06.2.09.29.08.19.11.28.07.2.1.29.07.19.1.29.07.19.11.28a2.36,2.36,0,0,0,.12.28c0,.1.07.2.1.29s.07.2.1.29l.1.28c.07.18.05.15.1.29a.35.35,0,0,1-.32.47ZM16.28,55.8h.63a3,3,0,0,1,.32,0h.58c.11,0,0-.24,0-.3s-.05-.16-.08-.25,0-.13-.09-.27-.05-.13-.09-.27,0-.12-.08-.28-.07-.17-.1-.27l-.09-.27q0-.15-.09-.27c0-.05-.05-.27-.12-.18a.48.48,0,0,0-.07.18l-.09.27-.08.27-.1.27a2.51,2.51,0,0,1-.08.28l-.08.27c-.05.14-.06.14-.1.27s0,.14-.09.28a.81.81,0,0,0-.07.22Z"/><path class="cls-1" d="M30.69,59.67H29.11a.35.35,0,0,1-.32-.19s-.06-.14-.13-.28l-.13-.27-.14-.28a2.36,2.36,0,0,1-.12-.28,2.29,2.29,0,0,1-.14-.27L28,57.83c-.07-.14-.06-.14-.12-.28l-.14-.28L27.59,57a2.24,2.24,0,0,0-.13-.27c-.07-.14-.06-.15-.12-.28l-.14-.28a.67.67,0,0,0-.06-.15l0-.05,0,0s-.06,0-.11,0h-1s0,.05,0,.07a1.15,1.15,0,0,0,0,.19,1,1,0,0,0,0,.17,1.09,1.09,0,0,1,0,.18v.31c0,.16,0,.16,0,.31v.31c0,.16,0,.16,0,.32v.62c0,.16,0,.16,0,.31V59c0,.15,0,.15,0,.31a.32.32,0,0,1-.11.24.3.3,0,0,1-.24.11H24.24a.37.37,0,0,1-.24-.1.35.35,0,0,1-.1-.24V58.11c0-.16,0-.16,0-.31s0-.15,0-.3V55.36c0-.1,0-.2,0-.31s0-.2,0-.3,0-.2,0-.31,0-.2,0-.3v-.31c0-.1,0-.2,0-.3s0-.21,0-.31v-.91c0-.11,0-.21,0-.31v-.3c0-.11,0-.21,0-.31s0-.21,0-.31v-.3c0-.19,0-.31,0-.31a.38.38,0,0,1,.35-.35H28l.31,0,.31.07a2.46,2.46,0,0,1,.29.09l.29.13a1.83,1.83,0,0,1,.26.16l.25.19a1.45,1.45,0,0,1,.22.21,2.11,2.11,0,0,1,.19.23,2,2,0,0,1,.18.25c.05.09.11.18.15.27a1.69,1.69,0,0,1,.12.28c0,.1.05.2.07.3s0,.2,0,.3a1.63,1.63,0,0,1,0,.31,2.83,2.83,0,0,1,0,.29,1.36,1.36,0,0,1,0,.29c0,.1,0,.19-.07.29s0,.19-.09.28-.08.18-.12.27l-.15.25c0,.08-.12.15-.18.23s-.12.15-.19.22-.16.12-.23.19l-.24.17c-.06,0-.25.1-.25.18a.18.18,0,0,0,0,.09,1.34,1.34,0,0,1,.11.14l.14.28c.07.14.06.14.13.28l.14.28c.07.14.07.1.16.27s.09.17.14.28.09.18.14.28l.15.27c0,.1.1.19.14.28l.14.28.15.27a2.37,2.37,0,0,0,.15.28l.14.28a.37.37,0,0,1,0,.34.38.38,0,0,1-.3.17ZM26,54s.19,0,.25,0h1.4a1.36,1.36,0,0,0,.29,0,.92.92,0,0,0,.28-.09,1,1,0,0,0,.25-.15.8.8,0,0,0,.18-.23.83.83,0,0,0,.12-.27,1.37,1.37,0,0,0,0-.29,1.14,1.14,0,0,0,0-.27,1,1,0,0,0-.09-.26.69.69,0,0,0-.19-.19.91.91,0,0,0-.23-.15.93.93,0,0,0-.27,0H26c-.05,0-.11,0-.12.06a1.77,1.77,0,0,0,0,.23c0,.14,0,.14,0,.28v.57c0,.14,0,.14,0,.29s0,.14,0,.28,0,.19,0,.26Z"/><path class="cls-1" d="M35.6,59.68H34.27a.33.33,0,0,1-.24-.1.31.31,0,0,1-.1-.24c0-.15,0-.15,0-.31,0,0,0-.15,0-.3s0-.16,0-.31,0-.11,0-.3V57.8c0-.09,0-.19,0-.3v-.92c0-.1,0-.2,0-.31v-.61c0-.1,0-.2,0-.3s0-.2,0-.31,0-.2,0-.3v-.31c0-.1,0-.2,0-.3s0-.21,0-.31v-.3c0-.11,0-.21,0-.31v-.61c0-.1,0-.2,0-.3s0-.21,0-.31,0-.21,0-.3v-.92c0-.2,0-.15,0-.31a.41.41,0,0,1,.11-.25.35.35,0,0,1,.25-.09H35.6a.33.33,0,0,1,.24.1.38.38,0,0,1,.11.24v.61c0,.16,0,.16,0,.31v.31c0,.15,0,.15,0,.3s0,.15,0,.31v.61c0,.15,0,.15,0,.3v.92c0,.15,0,.15,0,.3v.31c0,.15,0,.15,0,.3s0,.15,0,.31,0,.15,0,.3v.61c0,.09,0,.19,0,.31v.3c0,.1,0,.2,0,.31v.61c0,.1,0,.21,0,.31s0,.2,0,.3,0,.21,0,.31v.61a.37.37,0,0,1-.1.24.34.34,0,0,1-.24.11Z"/><path class="cls-1" d="M47.45,59.68H46.12a.35.35,0,0,1-.25-.09.33.33,0,0,1-.1-.25V59c0-.15,0-.15,0-.3s0-.15,0-.31,0-.15,0-.3a2.6,2.6,0,0,1,0-.3v-.3c0-.15,0-.15,0-.3v-.3c0-.15,0-.15,0-.3s0-.15,0-.3,0-.15,0-.3v-.45s0-.08,0-.08-.07.17-.09.2l-.12.28-.12.28a2.93,2.93,0,0,1-.12.28c0,.09-.08.18-.12.28l-.12.28-.13.27c0,.1-.07.2-.11.29s-.08.19-.12.27l-.12.28a.34.34,0,0,1-.32.2H43.14a.33.33,0,0,1-.32-.2l-.12-.28-.12-.28c-.07-.14-.06-.14-.12-.28l-.12-.28-.12-.28-.12-.28c-.06-.13-.07-.13-.13-.27s0-.14-.11-.28-.07-.17-.11-.25,0-.17-.1-.17,0,.13,0,.16,0,.2,0,.3,0,.15,0,.31v.6c0,.15,0,.15,0,.3s0,.15,0,.3v.6c0,.15,0,.15,0,.3s0,.15,0,.3,0,.16,0,.31v.3a.36.36,0,0,1-.11.24.35.35,0,0,1-.24.1H39.93a.39.39,0,0,1-.25-.1.38.38,0,0,1-.09-.25c0-.15,0-.15,0-.31v-.3c0-.09,0-.19,0-.31s0-.19,0-.3,0-.2,0-.31,0-.2,0-.3,0-.2,0-.31,0-.2,0-.3,0-.21,0-.31V56c0-.1,0-.2,0-.31v-.61c0-.1,0-.2,0-.3v-.61c0-.1,0-.21,0-.31v-.3c0-.11,0-.21,0-.31v-.3c0-.11,0-.21,0-.31V52c0-.11,0-.21,0-.3s0-.21,0-.31,0-.21,0-.31,0-.22,0-.3,0-.15,0-.31a.37.37,0,0,1,.1-.24.35.35,0,0,1,.24-.1h1.26a.37.37,0,0,1,.32.21l.12.29.12.28c.06.14.07.13.14.27s0,.15.1.29.08.13.14.27,0,.11.12.28l.11.29c0,.08.08.18.12.28l.12.28c0,.09.09.18.13.28l.13.27c0,.1.07.2.11.29s.09.18.13.28l.13.27c0,.1.07.2.11.29l.13.28.09.22s0,.05,0,.08l.05.07s0,.09,0,.11.07,0,.09,0l.06-.16c.07-.14.07-.14.13-.28l.12-.28c.06-.14.05-.15.11-.29l.12-.27c.06-.14,0-.11.13-.28s.06-.18.11-.29.08-.18.12-.28l.13-.27c0-.09.07-.19.11-.29L45,52.3l.12-.28.12-.28.12-.28.12-.28.11-.28c0-.11.09-.21.12-.29s.07-.13.13-.27a.33.33,0,0,1,.31-.21h1.26a.32.32,0,0,1,.24.09.38.38,0,0,1,.11.24v.92s0,.11,0,.31,0,.18,0,.3v.31c0,.09,0,.19,0,.3v.31c0,.09,0,.2,0,.3v.31c0,.1,0,.2,0,.3s0,.2,0,.31,0,.2,0,.3,0,.21,0,.31,0,.2,0,.3,0,.21,0,.31v.3c0,.11,0,.21,0,.31s0,.2,0,.3v.31c0,.1,0,.2,0,.31v.3c0,.1,0,.21,0,.31s0,.2,0,.3v.31c0,.1,0,.21,0,.3v.92a.35.35,0,0,1-.1.24.33.33,0,0,1-.24.1Z"/><path class="cls-1" d="M54.63,59.75l-.31,0-.31,0-.3-.07-.29-.08-.29-.13-.28-.13-.26-.17-.24-.19-.22-.22-.22-.22-.17-.25L51.57,58l-.14-.28a2.65,2.65,0,0,1-.11-.3,2.21,2.21,0,0,1-.07-.3,2.87,2.87,0,0,1,0-.31c0-.1,0-.2,0-.32s0-.2,0-.31,0-.2,0-.32v-.31c0-.1,0-.2,0-.32v-.62c0-.11,0-.22,0-.32v-.63c0-.11,0-.21,0-.31s0-.22,0-.31a2.79,2.79,0,0,1,0-.32,2.17,2.17,0,0,1,.08-.3,2.64,2.64,0,0,1,.1-.3l.14-.28c0-.09.11-.17.17-.26l.19-.24.2-.24.23-.2.25-.19a2.2,2.2,0,0,1,.25-.17,2.49,2.49,0,0,1,.28-.15l.28-.12.3-.08.31-.06a1.45,1.45,0,0,1,.3,0h.31c.1,0,.21,0,.31,0l.31,0a1.63,1.63,0,0,1,.3.07c.1,0,.19.06.29.09l.29.11.28.14a2.2,2.2,0,0,1,.25.17,1.59,1.59,0,0,1,.24.2,1.15,1.15,0,0,1,.23.21,1.45,1.45,0,0,1,.21.22,2.4,2.4,0,0,1,.18.26,1.4,1.4,0,0,1,.16.26,1.91,1.91,0,0,1,.15.28,2,2,0,0,1,.11.29c0,.09.05.19.07.31s0,.19,0,.31a2.72,2.72,0,0,1,0,.31c0,.1,0,.2,0,.31s0,.21,0,.32,0,.2,0,.31,0,.21,0,.32v.31c0,.11,0,.22,0,.31v.32c0,.11,0,.22,0,.31v.32c0,.11,0,.22,0,.31s0,.22,0,.32a2.72,2.72,0,0,1,0,.31,2.17,2.17,0,0,1-.08.3,2.11,2.11,0,0,1-.1.3c-.05.09-.09.18-.14.28s-.11.18-.17.27-.12.16-.18.24l-.21.23a17515334606819.22,17515334606819.22,0,0,1-.48.4,2.26,2.26,0,0,1-.26.16l-.27.15a2.52,2.52,0,0,1-.29.12l-.29.09-.31.06-.3,0Zm0-7.66a1.51,1.51,0,0,0-.31,0,2.09,2.09,0,0,0-.3.11,1,1,0,0,0-.26.16,1.13,1.13,0,0,0-.22.22,1.75,1.75,0,0,0-.16.25,1,1,0,0,0-.11.27,2.19,2.19,0,0,0,0,.3c0,.09,0,.18,0,.29s0,.19,0,.3v.3c0,.09,0,.19,0,.29s0,.2,0,.3,0,.21,0,.3,0,.2,0,.3,0,.2,0,.29,0,.21,0,.3,0,.21,0,.3a1.84,1.84,0,0,0,.06.29,1,1,0,0,0,.26.52l.22.22a1.75,1.75,0,0,0,.27.16,1.24,1.24,0,0,0,.29.1,1.22,1.22,0,0,0,.62,0,1.32,1.32,0,0,0,.3-.09,1.67,1.67,0,0,0,.26-.17,2,2,0,0,0,.21-.22,1.84,1.84,0,0,0,.17-.25,1.14,1.14,0,0,0,.12-.27c0-.08,0-.18,0-.29s0-.19,0-.3,0-.19,0-.3,0-.19,0-.29,0-.2,0-.3v-.3c0-.1,0-.2,0-.3a2.8,2.8,0,0,0,0-.29c0-.11,0-.21,0-.3l0-.3c0-.11,0-.21,0-.29a2.16,2.16,0,0,0,0-.3,1.16,1.16,0,0,0-.11-.27,1.38,1.38,0,0,0-.17-.25,1.51,1.51,0,0,0-.22-.22,1.38,1.38,0,0,0-.27-.16,1.1,1.1,0,0,0-.29-.1,1.56,1.56,0,0,0-.31,0Z"/><path class="cls-1" d="M4.18,71.94H2.37a.18.18,0,0,1-.18-.19c0-.14,0-.14,0-.29v-.89c0-.09,0-.19,0-.3s0-.19,0-.3,0-.19,0-.3v-.59c0-.1,0-.2,0-.3s0-.19,0-.29v-.3c0-.1,0-.2,0-.3s0-.2,0-.3,0-.2,0-.29V67c0-.11,0-.21,0-.3v-.3a.18.18,0,0,1,.18-.18H4.23l.3,0a1.33,1.33,0,0,1,.3.06l.29.1.27.14.24.2.21.22a2.2,2.2,0,0,1,.17.25,2.7,2.7,0,0,1,.15.29,2.11,2.11,0,0,1,.1.3,2.53,2.53,0,0,1,0,.32c0,.09,0,.2,0,.32v1c0,.12,0,.23,0,.33a2.88,2.88,0,0,1,0,.32,2.16,2.16,0,0,1,0,.32,1.5,1.5,0,0,1-.08.32c0,.09-.11.17-.17.27a2.7,2.7,0,0,1-.18.25l-.21.23a2.27,2.27,0,0,1-.25.18l-.27.14-.29.1-.3.07H4.18Zm-.79-1.15a.16.16,0,0,0,.11,0h.64a1.58,1.58,0,0,0,.32,0,.84.84,0,0,0,.29-.12A.8.8,0,0,0,5,70.43a.62.62,0,0,0,.13-.31,2.11,2.11,0,0,0,0-.33v-1a2.8,2.8,0,0,0,0-.29c0-.11,0-.2,0-.28s0-.2-.06-.28a.85.85,0,0,0-.13-.25,1.49,1.49,0,0,0-.21-.22.9.9,0,0,0-.28-.13,1.47,1.47,0,0,0-.31,0H3.56c-.06,0-.17,0-.19,0a.88.88,0,0,0,0,.28,2.8,2.8,0,0,1,0,.29c0,.16,0,.16,0,.32s0,.15,0,.31v.62c0,.1,0,.21,0,.32v.62c0,.12,0,.23,0,.32S3.33,70.73,3.39,70.79Z"/><path class="cls-1" d="M11,72c-.15,0-.15,0-.3,0H7.64a.19.19,0,0,1-.19-.19V66.41a.18.18,0,0,1,.19-.18H11a.18.18,0,0,1,.19.18v.77a.19.19,0,0,1-.19.19H8.93c-.08,0-.27,0-.31.06a.94.94,0,0,0,0,.29v.22a2.8,2.8,0,0,1,0,.29c0,.07,0,.16,0,.23a.39.39,0,0,0,.28.06h1.73a.18.18,0,0,1,.19.18v.73a.18.18,0,0,1-.19.18H8.92a.75.75,0,0,0-.26,0c-.07,0,0,.24,0,.29v.5a2,2,0,0,0,0,.25s0,.11,0,.14h.13a.81.81,0,0,0,.22,0h2a.18.18,0,0,1,.19.19v.76A.2.2,0,0,1,11,72Z"/><path class="cls-1" d="M16.52,71.94h-.76a.19.19,0,0,1-.16-.09l-.16-.25c-.07-.13-.08-.12-.16-.25l-.15-.26C15.05,71,15,71,15,70.85a2.34,2.34,0,0,1-.15-.25l-.16-.25-.17-.25-.15-.26-.16-.25c-.06-.08-.11-.17-.16-.25l-.17-.25c-.06-.1-.11-.18-.15-.26s-.06-.13-.12-.15-.06.06-.06.11,0,.24,0,.37,0,.14,0,.29v.29c0,.08,0,.18,0,.29v1.15c0,.11,0,.21,0,.29v.29a.19.19,0,0,1-.18.19h-.81a.19.19,0,0,1-.18-.19c0-.15,0-.15,0-.29s0-.15,0-.3v-.89c0-.15,0-.15,0-.3v-.3c0-.15,0-.15,0-.29s0-.15,0-.3,0-.15,0-.3,0-.15,0-.29,0-.15,0-.3v-.89c0-.1,0-.21,0-.3s0-.21,0-.3v-.3a.18.18,0,0,1,.18-.18h.77a.18.18,0,0,1,.15.08c.08.13.09.13.17.25l.15.26.16.25.16.26c.08.12.09.12.16.24l.17.26.15.25.16.25.16.25.16.26.16.25a2.82,2.82,0,0,1,.18.29c0,.05.06.16.13.15a.62.62,0,0,0,0-.27c0-.1,0-.2,0-.3V66.41a.18.18,0,0,1,.19-.18h.8a.18.18,0,0,1,.19.18V70c0,.15,0,.15,0,.3v.29c0,.15,0,.15,0,.3v.6c0,.14,0,.14,0,.29a.18.18,0,0,1-.18.19Z"/><path class="cls-1" d="M20.1,72h-.81a.19.19,0,0,1-.19-.19c0-.14,0-.14,0-.29v-.3c0-.08,0-.18,0-.3s0-.18,0-.29,0-.19,0-.3,0-.19,0-.29V68.8c0-.1,0-.2,0-.29s0-.2,0-.3v-.29c0-.12,0-.22,0-.3a1,1,0,0,0,0-.24c0-.06-.06-.06-.12-.06H17.83a.18.18,0,0,1-.18-.18v-.73a.19.19,0,0,1,.18-.19h3.73a.19.19,0,0,1,.19.18c0,.18,0,.18,0,.37v.36a.18.18,0,0,1-.18.18H20.42s-.1,0-.12,0a.24.24,0,0,0,0,.14,3.23,3.23,0,0,0,0,.44v.88c0,.15,0,.15,0,.3v1.48c0,.15,0,.15,0,.29s0,.15,0,.3v.59A.19.19,0,0,1,20.1,72Z"/><path class="cls-1" d="M26.48,72h-.85a.19.19,0,0,1-.17-.13c0-.13-.05-.13-.09-.26l-.1-.27a2.14,2.14,0,0,1-.09-.27c0-.08-.05-.21-.14-.25s-.17,0-.24,0H23.62a.59.59,0,0,0-.23,0s-.06.07-.08.1a3.61,3.61,0,0,0-.16.42c0,.13,0,.13-.09.26s0,.14-.09.27a.18.18,0,0,1-.18.13h-.85a.18.18,0,0,1-.15-.08.17.17,0,0,1,0-.17l.1-.29.1-.27.1-.29.11-.28c0-.08.06-.18.1-.28s.06-.18.1-.28.06-.19.1-.28l.1-.28c0-.1.07-.19.1-.28s.07-.19.11-.28l.09-.29c0-.09.08-.19.11-.28s.07-.19.1-.28.07-.19.1-.28.07-.19.1-.28.07-.2.1-.29.08-.19.11-.28.07-.2.1-.28.06-.14.11-.28a.18.18,0,0,1,.17-.13h.67a.2.2,0,0,1,.18.12c.05.14,0,.14.09.28s.06.14.11.28,0,.15.09.29.06.14.11.28l.1.28s.06.14.11.28l.1.28.1.28.1.29.1.27c.05.14.06.14.11.29,0,0,0,.14.09.28s0,.11.11.28.06.18.09.28l.12.28.09.28c0,.1.07.2.1.29l.11.27c.06.18.09.29.09.29a.17.17,0,0,1,0,.17.19.19,0,0,1-.16.08Zm-2.76-2.32h0a.75.75,0,0,0,.3,0,4.51,4.51,0,0,0,.52,0s.12,0,.14,0,0-.13,0-.17,0-.1,0-.15-.06-.15-.11-.31l-.1-.32-.09-.26a.94.94,0,0,0-.07-.22c-.06-.11-.1,0-.12.06s-.09.28-.13.42-.06.16-.11.32-.11.3-.15.45l0,.08S23.69,69.62,23.72,69.64Z"/><path class="cls-1" d="M31,72h-3.4a.18.18,0,0,1-.18-.19c0-.14,0-.14,0-.29v-.89c0-.15,0-.15,0-.3v-.6c0-.15,0-.15,0-.29s0-.15,0-.3V68.2c0-.15,0-.15,0-.3V67c0-.15,0-.15,0-.3s0-.15,0-.3a.2.2,0,0,1,.19-.19h.81a.18.18,0,0,1,.18.18v.3c0,.14,0,.14,0,.29s0,.15,0,.29v1.76c0,.15,0,.15,0,.29s0,.15,0,.3v.58c0,.13,0,.26,0,.39s0,.16.07.19h.27a2.62,2.62,0,0,1,.28,0H31a.18.18,0,0,1,.18.19v.25c0,.13,0,.13,0,.26s0,.13,0,.25A.18.18,0,0,1,31,72Z"/><path class="cls-1" d="M37.47,72h-.81a.19.19,0,0,1-.19-.19v-.3c0-.16,0-.16,0-.31v-.31c0-.15,0-.15,0-.31v-.61a2.72,2.72,0,0,0,0-.3H35c-.09,0-.28,0-.29.09a4.69,4.69,0,0,0,0,.53v1.23c0,.15,0,.15,0,.3a.18.18,0,0,1-.18.19h-.8a.18.18,0,0,1-.19-.19v-3c0-.15,0-.15,0-.29s0-.15,0-.3v-.3c0-.15,0-.15,0-.3s0-.14,0-.29v-.9a.18.18,0,0,1,.19-.18h.8a.18.18,0,0,1,.19.18v.3c0,.16,0,.16,0,.31v.3c0,.15,0,.15,0,.3v.3c0,.1,0,.2,0,.3v.15s0,.07,0,.09.17.07.23.07h.93a1.11,1.11,0,0,1,.26,0,.76.76,0,0,0,.15,0c.05,0,.11,0,.15,0s0-.21,0-.28v-.3c0-.15,0-.15,0-.3v-.3c0-.15,0-.15,0-.3v-.3c0-.16,0-.16,0-.31a.18.18,0,0,1,.18-.18h.81a.19.19,0,0,1,.18.19v.3c0,.15,0,.15,0,.3s0,.15,0,.3v4.16c0,.18,0,.29,0,.29a.17.17,0,0,1-.17.18Z"/><path class="cls-1" d="M40.86,72l-.31,0a2.84,2.84,0,0,1-.31-.06l-.3-.11a2.46,2.46,0,0,1-.27-.17,1.64,1.64,0,0,1-.25-.19,2.25,2.25,0,0,1-.21-.24,3.1,3.1,0,0,1-.18-.26,1.85,1.85,0,0,1-.13-.29,1.67,1.67,0,0,1-.07-.3c0-.09,0-.19,0-.32s0-.19,0-.31,0-.2,0-.32,0-.2,0-.31v-.32c0-.11,0-.22,0-.31s0-.22,0-.31a2.31,2.31,0,0,1,0-.32,1.13,1.13,0,0,1,.06-.3,1.55,1.55,0,0,1,.14-.29A1.91,1.91,0,0,1,39.2,67a2.39,2.39,0,0,1,.23-.22,1.64,1.64,0,0,1,.24-.21l.27-.15a1.57,1.57,0,0,1,.3-.12l.31-.07h.31a1.67,1.67,0,0,1,.32,0,1.55,1.55,0,0,1,.31.06l.29.11a1.78,1.78,0,0,1,.27.17,2.48,2.48,0,0,1,.26.19,1.5,1.5,0,0,1,.2.24,1.57,1.57,0,0,1,.19.26,1.69,1.69,0,0,1,.12.28,2.05,2.05,0,0,1,.07.31c0,.09,0,.19,0,.32v.31a3,3,0,0,1,0,.31c0,.1,0,.21,0,.32s0,.22,0,.31v.32a2.69,2.69,0,0,1,0,.31,2.32,2.32,0,0,1,0,.31,1.61,1.61,0,0,1-.07.31,1.23,1.23,0,0,1-.13.29,1.35,1.35,0,0,1-.18.26,2.25,2.25,0,0,1-.21.24,1.64,1.64,0,0,1-.25.19,1.2,1.2,0,0,1-.27.16,1.45,1.45,0,0,1-.29.11,1.55,1.55,0,0,1-.31.07,1.67,1.67,0,0,1-.32,0Zm0-4.62a1,1,0,0,0-.25,0,.62.62,0,0,0-.23.11.83.83,0,0,0-.19.18.7.7,0,0,0-.15.25,1.3,1.3,0,0,0,0,.28c0,.08,0,.17,0,.29v.87a2.8,2.8,0,0,1,0,.29c0,.11,0,.21,0,.29a1.43,1.43,0,0,0,0,.28.86.86,0,0,0,.14.25.92.92,0,0,0,.2.17.71.71,0,0,0,.23.12,1,1,0,0,0,.25,0,1,1,0,0,0,.26,0,1,1,0,0,0,.23-.1.83.83,0,0,0,.19-.18.86.86,0,0,0,.14-.25,1.33,1.33,0,0,0,.06-.28,2.53,2.53,0,0,0,0-.29,2.62,2.62,0,0,0,0-.29v-.29c0-.11,0-.2,0-.29a2.53,2.53,0,0,0,0-.29,2.19,2.19,0,0,0,0-.29,1.45,1.45,0,0,0-.06-.29,1,1,0,0,0-.14-.25.83.83,0,0,0-.19-.17.7.7,0,0,0-.23-.11,1,1,0,0,0-.26,0Z"/><path class="cls-1" d="M46.05,72a4.33,4.33,0,0,1-.58-.08,1.31,1.31,0,0,1-.28-.09l-.27-.13-.24-.17a2.08,2.08,0,0,1-.21-.21,1.37,1.37,0,0,1-.18-.24,2.15,2.15,0,0,1-.14-.26,1.31,1.31,0,0,1-.09-.28,1.36,1.36,0,0,1-.06-.29c0-.1,0-.2,0-.3s0-.14,0-.29,0-.15,0-.3,0-.14,0-.29V66.41a.18.18,0,0,1,.18-.18H45a.2.2,0,0,1,.19.19c0,.16,0,.16,0,.32s0,.15,0,.31v.63c0,.15,0,.15,0,.31v1.26c0,.15,0,.15,0,.31s0,.16,0,.31a1,1,0,0,0,0,.3.79.79,0,0,0,.1.27.84.84,0,0,0,.21.21.58.58,0,0,0,.26.13.92.92,0,0,0,.29,0,.88.88,0,0,0,.29,0,.58.58,0,0,0,.26-.13,1,1,0,0,0,.21-.21,1.09,1.09,0,0,0,.11-.27,1.42,1.42,0,0,0,0-.3c0-.15,0-.15,0-.31V67.67c0-.16,0-.16,0-.31s0-.16,0-.32v-.63a.19.19,0,0,1,.19-.19h.8a.17.17,0,0,1,.18.18c0,.15,0,.15,0,.3s0,.15,0,.29v.89c0,.15,0,.15,0,.29s0,.15,0,.3v.29c0,.15,0,.15,0,.3v.59c0,.15,0,.15,0,.29s0,.2,0,.3a2.46,2.46,0,0,1-.07.29,2.31,2.31,0,0,1-.1.28,2.15,2.15,0,0,1-.14.26,1.88,1.88,0,0,1-.18.24,1.34,1.34,0,0,1-.21.2,1.08,1.08,0,0,1-.24.18,2.1,2.1,0,0,1-.26.13c-.09,0-.19.06-.28.09l-.29,0a1.53,1.53,0,0,1-.3,0Z"/><path class="cls-1" d="M51.09,72l-.29,0a2.58,2.58,0,0,1-.29,0l-.29,0-.28-.09-.27-.12-.26-.13-.24-.17c-.08,0-.15-.12-.23-.18a.19.19,0,0,1,0-.26c.09-.1.09-.11.17-.21l.18-.2.18-.2a.21.21,0,0,1,.14-.07.21.21,0,0,1,.12,0,2.2,2.2,0,0,0,.25.17,2.1,2.1,0,0,0,.26.13,1.66,1.66,0,0,0,.29.1,1.36,1.36,0,0,0,.29.06,1.53,1.53,0,0,0,.3,0l.29,0a1.07,1.07,0,0,0,.27-.09.5.5,0,0,0,.22-.18.44.44,0,0,0,.09-.27A.6.6,0,0,0,51.9,70a.41.41,0,0,0-.2-.19.89.89,0,0,0-.26-.07l-.39-.06-.32,0-.31-.07-.3-.1a1.2,1.2,0,0,1-.27-.16,1.59,1.59,0,0,1-.24-.2,1.57,1.57,0,0,1-.2-.25,2,2,0,0,1-.14-.29,1.32,1.32,0,0,1-.09-.3,1.67,1.67,0,0,1,0-.32,2.64,2.64,0,0,1,0-.29,1.53,1.53,0,0,1,.07-.29c0-.09.06-.18.1-.27a1,1,0,0,1,.17-.24,2,2,0,0,1,.19-.22l.25-.16a1.05,1.05,0,0,1,.26-.13,1.31,1.31,0,0,1,.28-.09l.29,0,.29,0,.32,0a1.64,1.64,0,0,1,.32,0,2.8,2.8,0,0,1,.31.09,1.66,1.66,0,0,1,.31.12l.29.14.28.17a.2.2,0,0,1,.08.12A.22.22,0,0,1,53,67l-.16.22-.14.23c-.07.11-.08.1-.15.22a.19.19,0,0,1-.15.08.22.22,0,0,1-.11,0L52,67.59a1.88,1.88,0,0,0-.3-.12l-.32-.08a1.66,1.66,0,0,0-.32,0,1,1,0,0,0-.33.07.49.49,0,0,0-.28.19.54.54,0,0,0-.09.33.39.39,0,0,0,.09.26.63.63,0,0,0,.23.16,1.58,1.58,0,0,0,.28.08l.29,0,.3,0a1.26,1.26,0,0,1,.28,0,2.29,2.29,0,0,1,.28.09,2.06,2.06,0,0,1,.26.12l.23.17a1.94,1.94,0,0,1,.2.21,2.13,2.13,0,0,1,.16.25,2.06,2.06,0,0,1,.12.26,2.86,2.86,0,0,1,.07.28c0,.1,0,.2,0,.29a3,3,0,0,1,0,.31,2.46,2.46,0,0,1-.07.29,2.39,2.39,0,0,1-.13.28,1.5,1.5,0,0,1-.18.24,2.28,2.28,0,0,1-.22.22,2.26,2.26,0,0,1-.26.16l-.28.11a1.38,1.38,0,0,1-.29.08l-.3,0h-.31Z"/><path class="cls-1" d="M57.77,72h-3.4a.19.19,0,0,1-.19-.18c0-.15,0-.15,0-.29s0-.15,0-.3,0-.15,0-.3v-.3c0-.14,0-.14,0-.29s0-.11,0-.3,0-.18,0-.3v-.29c0-.1,0-.2,0-.3s0-.2,0-.3,0-.19,0-.3V67.31c0-.11,0-.21,0-.3s0-.21,0-.3v-.3a.19.19,0,0,1,.18-.19h3.4a.2.2,0,0,1,.19.19s0,.13,0,.26,0,.13,0,.25,0,.13,0,.26a.19.19,0,0,1-.18.19h-2.3c-.06,0-.12,0-.13.09s0,.17,0,.26,0,.15,0,.23,0,.19,0,.28a.76.76,0,0,0,0,.15.48.48,0,0,0,0,.12c0,.05.27,0,.29,0h1.74a.18.18,0,0,1,.18.19v.72a.18.18,0,0,1-.18.18H55.57s-.16,0-.19,0a.34.34,0,0,0,0,.1c0,.16,0,.32,0,.48s0,.17,0,.26a1.29,1.29,0,0,0,0,.34h2.39A.19.19,0,0,1,58,71v.76A.19.19,0,0,1,57.77,72Z"/><path class="cls-1" d="M.22,63.42c-.21,0-.24-.79.15-.71a2.43,2.43,0,0,0,.85-.07,23.65,23.65,0,0,1,2.92,0l5.43,0H54.19l3.32,0c.5,0,2.59-.36,2.56.3s-1.1.36-1.51.29a12.88,12.88,0,0,0-2,.06c-1.74,0-3.42,0-5.12,0-8.6,0-17.27-.1-25.93-.1-2.32,0-25.33.06-25.33.11"/></svg>