<svg id="デザイン" xmlns="http://www.w3.org/2000/svg" viewBox="0 0 240 28"><defs><style>.cls-1{fill:#333333;}</style></defs><title>logo_02_bu</title><g id="フッター"><g id="logo-jp"><path class="cls-1" d="M16,25.77A76.15,76.15,0,0,0,4.42,14.1l1.23-1.17a78.4,78.4,0,0,1,6,5.39A71.53,71.53,0,0,0,21.8,6.62H1.05V5h22l1.43,1A86.6,86.6,0,0,1,12.87,19.55a67.24,67.24,0,0,1,4.62,5.11Z"/><path class="cls-1" d="M37.12,2.91v13.5H35.38V2.91ZM50.8,2.57V13.19c0,5.9-2.86,10.33-9.25,13l-1.14-1.48c6.16-2.4,8.59-6.28,8.59-11.5V2.57Z"/><path class="cls-1" d="M71.23,12.7v-7H64V4.14H83.84v1.6H73v7h12.5v1.63H73v5.94c0,2.59.8,3.33,3.6,3.48.68,0,2.05.05,3.51.05,1.68,0,3.33,0,4.45-.11v1.66c-1.23,0-3.11.08-4.91.08-1.31,0-2.54,0-3.23,0-3.85-.14-5.16-1.48-5.16-5v-6H62.49V12.7Z"/><path class="cls-1" d="M119.68,7.84V9.18h-26V7.84ZM116.23,25.4V11h1.57V26.75H95.53V11H97.1V25.4Z"/><path class="cls-1" d="M165.86,15.67A1.69,1.69,0,1,1,167.57,14a1.7,1.7,0,0,1-1.71,1.68Z"/><path class="cls-1" d="M217.62,24.69V11.82h1.62V24.69h6.1V4.06H214.19V2.52h23.67V4.06H227v8.83h10.07V14.4H227V24.69H239v1.54h-25.9V24.69Z"/><path class="cls-1" d="M134.87,11.45v-1h4.68V9h-4.68V4.07l4-.3-.1-1.42-10.6.79.1,1.42,5-.37V9h-5.57v1.46h5.43a106.4,106.4,0,0,1-5.61,10.22l1.28.85c1.4-2.25,2.85-4.86,4.47-8V27h1.63V13.42c1.37,1.71,2.66,3.21,3.49,4.47l1.13-.94C138.44,15.64,136.55,13.25,134.87,11.45Zm15,5.73V1.63H148.2V27h1.65V17.18Zm-3.56-9.86L142,3.12l-1,1,4.3,4.2Zm0,7.15L142,10.26l-1,1,4.3,4.21Z"/><rect class="cls-1" x="101.22" y="21.28" width="10.95" height="1.32"/><rect class="cls-1" x="98.45" y="15.44" width="16.49" height="1.32"/><rect class="cls-1" x="106.69" y="3.59" width="10.13" height="1.32"/><rect class="cls-1" x="111.41" y="12.05" width="1.46" height="10.54"/><rect class="cls-1" x="100.52" y="3.44" width="1.45" height="19.16"/><rect class="cls-1" x="105.89" y="1" width="1.61" height="21.6"/><path class="cls-1" d="M194.71,3.51a.37.37,0,0,1,0-.11S194.75,3.41,194.71,3.51Zm-11.1,13.17c.17-1,.21-1.93.29-3h3.74V12.33H184c.14-2,.2-4.17.25-6.42h3.14V4.56h-6.67l.35-3.39L179.76,1l-1,9.16,1.33.14.47-4.42h2.19c0,2.28-.06,4.42-.2,6.42h-4.54V13.7h4.42a24.55,24.55,0,0,1-4.66,12.05l1.28.85a29.46,29.46,0,0,0,4-8.29c1.29,2,2.37,3.79,3.26,5.42l1.31-.77c-1.11-1.89-2.33-3.78-4-6.27Zm15.26-9.95h5.51V5.5h-9c.34-.71.59-1.47.86-2.17a0,0,0,0,1,0,0L202.62,3l-.06-1.24-13.08.7.06,1.24,5.23-.28v0c0,.08-.62,1.53-.91,2.1h-5.51V6.73h4.77a12.11,12.11,0,0,1-5.52,4.33l.67,1.15a15.58,15.58,0,0,0,3.08-1.74v3.28h9.44V10.33a18.16,18.16,0,0,0,3.35,1.75l.65-1.27A13.07,13.07,0,0,1,198.87,6.73Zm-4.16,0h2.68A11,11,0,0,0,199,8.84h-5.88A13.56,13.56,0,0,0,194.71,6.73Zm4.65,5.85h-6.65V10h6.65ZM188.54,27h1.51V16.61h12V27h1.51V15.38h-15Zm3.85-3h7.28V18.82h-7.28Zm1.2-4h4.83v2.8h-4.83Z"/><rect class="cls-1" x="139.02" y="18.6" width="14.84" height="1.59" transform="translate(-1.18 14.02) rotate(-5.46)"/></g></g></svg>