<svg id="レイヤー_1" data-name="レイヤー 1" xmlns="http://www.w3.org/2000/svg" xmlns:xlink="http://www.w3.org/1999/xlink" viewBox="0 0 26 26"><defs><style>.cls-1,.cls-2{fill:#fff;}.cls-1{opacity:0;}.cls-3{opacity:0.7;}</style><symbol id="無料相談" data-name="無料相談" viewBox="0 0 32 32"><rect class="cls-1" width="32" height="32"/><path class="cls-2" d="M27.52,24.63a.45.45,0,0,1,.2-.43,6.32,6.32,0,0,0,3.09-5.14c0-2.48-1.79-4.67-4.48-5.91a9.48,9.48,0,0,1-4.08,6.33,15.93,15.93,0,0,1-9.31,2.82h-.37c1.61,2.24,4.84,3.77,8.57,3.77a13.15,13.15,0,0,0,2.2-.18.49.49,0,0,1,.38.11,12.24,12.24,0,0,0,5.58,2.46.23.23,0,0,0,.2-.39A5.65,5.65,0,0,1,27.52,24.63Z"/><path class="cls-2" d="M12.94,3.53c-6.49,0-11.75,3.82-11.75,8.52,0,2.84,1.92,5.36,4.87,6.91a.45.45,0,0,1,.24.3c0,.16.06.33.08.5a5.33,5.33,0,0,1-1.77,4.32.23.23,0,0,0,.22.38c3-.76,5.25-2.15,6.24-3.74a.42.42,0,0,1,.42-.21c.47,0,.95.06,1.45.06,6.48,0,11.74-3.81,11.74-8.52S19.42,3.53,12.94,3.53Z"/><path class="cls-2" d="M20.43,17a12.79,12.79,0,0,1-7.49,2.23c-.44,0-.89,0-1.33-.06h-.16A1.83,1.83,0,0,0,9.9,20a6.15,6.15,0,0,1-2.41,2,5.72,5.72,0,0,0,.25-2.39A5.67,5.67,0,0,0,7.63,19h0a1.85,1.85,0,0,0-.94-1.19c-2.58-1.36-4.13-3.49-4.13-5.7A6.2,6.2,0,0,1,5.44,7.13a12.82,12.82,0,0,1,7.5-2.23,12.79,12.79,0,0,1,7.49,2.23,6.2,6.2,0,0,1,2.88,4.92A6.18,6.18,0,0,1,20.43,17Z"/></symbol></defs><title>mod-header-side-contact-first</title><g id="ヘッダーノーマル"><use width="32" height="32" transform="translate(1 1) scale(0.75)" xlink:href="#無料相談"/></g></svg>