<svg id="デザイン" xmlns="http://www.w3.org/2000/svg" viewBox="0 0 48 38"><defs><style>.cls-1{fill:#395162;}</style></defs><title>logo_03_bu</title><g id="header-sp"><path class="cls-1" d="M28.79,20.19a1.54,1.54,0,0,1-.92-.29,2,2,0,0,1-.36-.33,1.4,1.4,0,0,1-.22-.42,2.15,2.15,0,0,1-.08-.46c0-.13,0-.28,0-.46s0-.3,0-.47,0-.33,0-.47,0-.33,0-.46a2.09,2.09,0,0,1,.09-.45,1.06,1.06,0,0,1,.21-.41,1.45,1.45,0,0,1,.35-.35,1.37,1.37,0,0,1,.44-.2,1.42,1.42,0,0,1,.48-.08,1.62,1.62,0,0,1,.44.07,1.75,1.75,0,0,1,.39.19l.18.12s.07.09.13.07,0,0,0-.09V14.53c0-.22,0-.22,0-.44s0-.22,0-.44a.15.15,0,0,1,.14-.15h.72a.15.15,0,0,1,.14.15c0,.22,0,.22,0,.45s0,.23,0,.45,0,.23,0,.46,0,.22,0,.45,0,.23,0,.45v.45c0,.23,0,.23,0,.46v1.36c0,.14,0,.3,0,.45s0,.31,0,.46,0,.32,0,.45,0,.23,0,.45a.13.13,0,0,1-.13.14h-.72c-.18,0-.15-.2-.16-.31s0-.06,0-.07-.1.06-.13.09l-.17.12a2,2,0,0,1-.4.17A2.36,2.36,0,0,1,28.79,20.19Zm.29-3.85a1,1,0,0,0-.47.1.66.66,0,0,0-.32.36,1.36,1.36,0,0,0-.09.47,3.93,3.93,0,0,0,0,.49c0,.17,0,.33,0,.49a2.17,2.17,0,0,0,.1.47.69.69,0,0,0,.3.37,1,1,0,0,0,.48.11,1,1,0,0,0,.46-.12.7.7,0,0,0,.32-.36,1.71,1.71,0,0,0,.09-.48c0-.15,0-.31,0-.48a3.84,3.84,0,0,0,0-.48,2.14,2.14,0,0,0-.1-.48.73.73,0,0,0-.32-.35.89.89,0,0,0-.46-.11Z"/><path class="cls-1" d="M35.08,17.68H34.4a.13.13,0,0,1-.13-.13v-.07c0-.27,0-.27,0-.53v-.54c0-.27,0-.27,0-.53a.45.45,0,0,0-.46-.41.47.47,0,0,0-.47.41c0,.26,0,.26,0,.53s0,.27,0,.53,0,.27,0,.54v.07a.14.14,0,0,1-.13.14h-.68a.12.12,0,0,1-.12-.13s0,0,0-.07,0-.24,0-.47v-.47c0-.24,0-.24,0-.48V13.65a.13.13,0,0,1,.13-.13h.68a.12.12,0,0,1,.12.13s0,0,0,.06c0,.2,0,.2,0,.39s0,.2,0,.39a2.62,2.62,0,0,0,0,.28c0,.07,0,.05.09,0a1.7,1.7,0,0,1,.22-.15,1.06,1.06,0,0,1,.83,0,1.34,1.34,0,0,1,.37.25,1.06,1.06,0,0,1,.35.8s0,.22,0,.45,0,.22,0,.44V17c0,.23,0,.23,0,.45,0,0,0,0,0,.07S35.15,17.68,35.08,17.68Z"/><path class="cls-1" d="M35.1,20.07H32.52a.13.13,0,0,1-.13-.13c0-.33,0-.33,0-.67a.14.14,0,0,1,.14-.13H35.1a.13.13,0,0,1,.14.13v.67C35.24,20,35.17,20.06,35.1,20.07Z"/><path class="cls-1" d="M25.3,25.41c-.22,0-.22,0-.44,0H23.54a.25.25,0,0,1-.25-.27c0-.23,0-.23,0-.46s0-.23,0-.46,0-.23,0-.46c0,0,0-.23,0-.46s0-.23,0-.46,0-.22,0-.46v-.92c0-.23,0-.23,0-.46s0-.23,0-.46,0-.23,0-.46,0-.23,0-.46c0-.05,0-.25-.08-.22s-.09.16-.11.21c-.1.22-.09.23-.19.45s-.11.21-.21.43-.11.22-.21.44a4.2,4.2,0,0,1-.17.45c-.1.22-.1.22-.19.44s-.11.22-.21.44-.11.22-.2.44-.06.24-.16.46-.09.22-.19.44a.3.3,0,0,1-.27.17c-.25,0-.25,0-.49,0h-.49c-.24,0-.24,0-.48,0a.26.26,0,0,1-.24-.17c-.1-.22-.12-.21-.22-.43s-.07-.23-.17-.46-.12-.21-.21-.43-.11-.22-.21-.44-.09-.22-.19-.44-.06-.24-.16-.46-.09-.22-.19-.44-.12-.22-.21-.44-.08-.23-.17-.45c0-.06-.05-.17-.1-.21s-.13.15-.13.22,0,.32,0,.47,0,.23,0,.46,0,.23,0,.46v.46c0,.23,0,.23,0,.46v.46c0,.23,0,.23,0,.46v.46c0,.23,0,.23,0,.46s0,.23,0,.46v.92a.25.25,0,0,1-.27.26h-.88c-.22,0-.22,0-.44,0h-.44a.28.28,0,0,1-.27-.29c0-.23,0-.23,0-.46s0-.23,0-.46,0-.23,0-.46a3.3,3.3,0,0,0,0-.47c0-.23,0-.23,0-.46s0-.23,0-.46v-.46c0-.24,0-.18,0-.47,0-.13,0-.29,0-.46s0-.3,0-.46,0-.31,0-.47,0-.3,0-.46,0-.31,0-.46,0-.31,0-.47,0-.3,0-.46,0-.31,0-.46,0-.31,0-.47,0-.31,0-.46,0-.31,0-.46v-.47c0-.16,0-.31,0-.46s0-.32,0-.46,0-.32,0-.47,0-.33,0-.46c0-.29,0-.23,0-.46a.31.31,0,0,1,.29-.3h.42c.21,0,.21,0,.41,0l.42,0c.21,0,.21,0,.41,0a.29.29,0,0,1,.27.16c.1.22.07.23.17.45s.11.21.2.43.09.22.19.44l.19.43c.1.22.08.23.17.44s.13.21.22.43.09.22.18.44l.19.43c.1.22.09.23.18.44s.12.21.21.43.1.22.19.44l.2.43s.08.22.18.44.1.22.19.43.14.28.19.42.09.25.2.26.17-.18.21-.26a.69.69,0,0,0,0-.13l.12-.28c.05-.12.09-.28.16-.45l.2-.43.2-.43c.06-.14.1-.29.17-.44s.12-.29.19-.43.15-.28.22-.43.1-.3.17-.44l.18-.44.18-.44c.07-.15.12-.3.18-.44s.13-.29.19-.43.16-.29.22-.42l.19-.44.19-.43a.26.26,0,0,1,.23-.18c.21,0,.21,0,.41,0h.83l.42,0a.29.29,0,0,1,.29.27V14a4.08,4.08,0,0,0,0,.46c0,.24,0,.24,0,.47a4.08,4.08,0,0,0,0,.46c0,.23.05.23.05.46s0,.23,0,.47,0,.23,0,.46,0,.23,0,.46,0,.23,0,.46,0,.24,0,.47v.46c0,.23,0,.23,0,.46s0,.24,0,.47,0,.23,0,.46c0,0,0,.23,0,.46s0,.23,0,.47,0,.23,0,.46v.46c0,.23,0,.23,0,.46s0,.24,0,.47,0,.23,0,.46,0,.23,0,.46,0,.24,0,.47,0,.23,0,.46,0,.23,0,.46a.3.3,0,0,1-.28.3Z"/><path class="cls-1" d="M.85,19.05s.26-.26.53-.48l.54-.43c.27-.22.28-.2.55-.42s.24-.26.51-.47.23-.12.58-.4c.15-.12.32-.28.53-.44s.34-.29.54-.44.33-.31.52-.47.38-.24.57-.39.33-.32.51-.47.38-.27.56-.42.37-.26.56-.41.31-.34.5-.49.4-.24.58-.39L9,12.49l.54-.44c.18-.14.33-.33.51-.48s.4-.24.58-.39l.53-.44c.18-.14.34-.31.53-.46s.38-.26.56-.4.34-.32.52-.47L13.26,9l.54-.43.54-.45c.18-.15.38-.27.56-.41l.54-.44L16,6.78l.56-.41c.18-.15.31-.36.49-.5l.54-.43L18.12,5c.18-.15.38-.28.56-.42l.54-.44.54-.44c.18-.15.39-.26.56-.4l.55-.44c.18-.15.34-.32.52-.46L21.92,2c.19-.16.34-.34.51-.48s.4-.28.56-.41l.54-.44c.15-.13.29-.45.52-.44s.43.28.59.42l.53.45c.27.22.25.24.52.46s.3.18.57.4.17.19.52.47c.15.12.35.24.56.41l.53.45.54.42c.17.14.33.32.52.47s.37.27.56.42.32.33.5.48.39.25.57.4.33.32.51.47l.55.43.55.43c.18.14.34.3.53.45s.39.25.57.39.34.32.52.46.34.32.52.47.39.25.57.39l.55.44.54.43c.18.14.35.3.53.45l.54.43.54.45.52.46c.18.15.38.28.56.42s.38.27.56.41.35.31.53.45.37.29.54.44.32.35.5.49.42.23.6.38.34.31.52.45.33.34.5.49.4.24.58.39.36.3.53.45l.54.44.54.43c.19.16.4.27.57.41l.54.44c.19.16.36.32.53.45s.35.36.5.48.41.25.41.44-.09.13-.13.18a2.53,2.53,0,0,1-.26.22c-.27.22-.28.2-.55.42s-.23.27-.5.49-.29.2-.56.42l-.54.44c-.27.21-.26.23-.53.45s-.29.19-.56.41-.25.25-.52.47l-.54.44-.54.43-.54.44-.54.44c-.27.22-.3.18-.57.4l-.55.43-.54.44-.54.44c-.27.22-.25.24-.52.46l-.54.43c-.27.22-.18.18-.53.46l-.54.43c-.17.14-.38.25-.57.41s-.33.31-.52.46-.37.26-.56.42-.33.31-.51.46l-.54.45-.54.44-.53.44c-.18.15-.39.25-.57.4s-.34.33-.52.47l-.54.44c-.18.15-.38.27-.56.42L30,33c-.18.14-.39.26-.57.4l-.54.44c-.18.15-.33.34-.51.48s-.36.31-.53.46-.4.26-.57.4l-.55.44c-.19.15-.34.34-.51.47s-.42.25-.58.39-.36.35-.51.48l-.53.45c-.05,0-.09.1-.15.14a.88.88,0,0,1-.21.12s-.13.09-.19.09-.1-.08-.14-.11-.23-.21-.35-.31-.3-.19-.56-.41-.25-.25-.52-.47-.31-.16-.58-.38l-.54-.44c-.27-.22-.25-.25-.52-.47s-.28-.2-.55-.42l-.53-.44c-.16-.13-.32-.29-.53-.46l-.53-.44c-.17-.14-.39-.23-.58-.39s-.32-.32-.51-.47l-.54-.44c-.18-.14-.39-.24-.58-.39s-.31-.35-.49-.5l-.55-.43-.54-.43L14.37,30c-.17-.14-.39-.25-.57-.39s-.35-.31-.53-.45-.33-.33-.51-.47-.41-.24-.59-.39l-.53-.44c-.18-.15-.34-.32-.52-.46l-.55-.43L10,26.47c-.18-.15-.34-.32-.52-.46s-.4-.25-.58-.39l-.55-.43c-.19-.15-.35-.31-.53-.46s-.32-.34-.5-.49-.4-.25-.57-.4-.36-.3-.54-.44-.38-.27-.56-.42l-.54-.42c-.19-.15-.32-.37-.49-.51s-.41-.24-.59-.38-.34-.33-.51-.47-.36-.31-.53-.45-.42-.25-.59-.38-.33-.36-.5-.49-.42-.27-.57-.39A3.21,3.21,0,0,1,.88,19Zm2.55,0c.27.22.3.19.57.4l.54.44c.28.22.24.26.51.48s.32.18.59.4l.54.44c.27.22.25.25.52.47s.31.17.58.39.22.29.49.51.29.19.56.41.3.2.57.42.23.26.5.48.28.21.56.43.3.18.57.4.24.26.51.48l.55.43c.27.22.26.24.53.46s.29.2.56.42l.53.45c.28.22.27.23.54.45s.29.19.56.41.26.24.53.46.3.18.58.4.24.25.52.47l.54.44c.27.22.26.23.54.45a6.77,6.77,0,0,1,.57.41c.27.22.24.25.51.47s.28.22.55.44.3.18.57.41.26.23.53.45.26.24.53.46.31.18.59.4a3.64,3.64,0,0,0,.49.5l.55.43c.27.22.26.23.54.45s.29.2.57.42.28.2.55.42l.31.28c.06.07.13.17.22.16a.55.55,0,0,0,.26-.14l.3-.26c.28-.22.25-.25.52-.47s.31-.18.58-.4.23-.27.5-.49.29-.19.57-.41l.54-.45c.27-.22.2-.14.55-.42l.53-.45c.17-.14.37-.26.57-.42l.53-.45c.18-.14.34-.3.53-.45l.55-.44c.17-.15.34-.31.53-.46s.38-.26.56-.41l.54-.45c.18-.15.33-.33.51-.48s.41-.23.59-.38.32-.34.51-.49.37-.28.55-.42.39-.27.57-.42l.54-.44L36,26.1c.18-.15.32-.35.5-.5s.42-.23.6-.37.32-.35.5-.5.42-.23.6-.38.34-.32.52-.47l.55-.43c.18-.15.35-.32.53-.46s.38-.28.56-.42l.54-.45c.18-.15.34-.33.52-.47s.4-.26.58-.4l.54-.44c.2-.15.37-.31.54-.44l.55-.45c.23-.19.43-.43.67-.63a.53.53,0,0,0,.2-.22c.05-.11,0-.19-.12-.24l-.25-.21c-.27-.22-.25-.25-.53-.47l-.55-.43-.54-.44c-.27-.23-.28-.2-.56-.42s-.24-.25-.52-.47-.28-.2-.55-.42l-.55-.44c-.27-.22-.23-.28-.5-.5s-.32-.15-.59-.37-.26-.24-.53-.46-.26-.23-.54-.45-.28-.2-.55-.42-.23-.28-.5-.5-.29-.19-.56-.41-.29-.21-.56-.43l-.55-.43c-.27-.22-.26-.24-.53-.46s-.29-.19-.56-.41-.24-.26-.51-.48-.31-.18-.58-.4-.24-.26-.51-.48l-.55-.43c-.27-.22-.26-.23-.53-.46s-.31-.17-.59-.39-.23-.27-.5-.49-.29-.2-.56-.42-.26-.23-.54-.45-.25-.24-.52-.46-.33-.15-.6-.37-.23-.28-.5-.5l-.54-.45-.55-.43c-.28-.22-.27-.23-.54-.45s-.3-.18-.58-.4-.24-.25-.52-.47a5.46,5.46,0,0,0-.47-.31c-.21-.14-.43-.26-.65-.38s-.39.21-.5.3c-.27.22-.32.15-.59.37s-.22.29-.49.51-.33.15-.6.37a5.68,5.68,0,0,1-.51.48l-.55.44c-.27.22-.29.19-.57.41l-.54.44c-.27.22-.24.26-.51.48l-.55.44-.54.43c-.28.22-.31.18-.58.4s-.22.28-.49.5a4.4,4.4,0,0,0-.58.39c-.28.22-.29.21-.56.43,0,0-.25.24-.52.46s-.26.24-.53.46-.29.2-.56.42-.24.25-.51.47-.3.19-.57.41l-.56.43-.53.45c-.27.22-.26.24-.53.46s-.26.23-.54.45l-.53.45c-.28.22-.3.19-.57.41s-.29.2-.56.42-.24.26-.52.48-.25.23-.53.45-.31.18-.58.4-.26.23-.54.45l-.53.45c-.27.22-.3.18-.58.4s-.25.24-.52.47-.25.24-.53.46-.26.24-.53.46L4,18.61c-.28.22-.3.2-.57.42Z"/></g></svg>