<svg id="レイヤー_1" data-name="レイヤー 1" xmlns="http://www.w3.org/2000/svg" viewBox="0 0 102 122"><defs><style>.cls-1{opacity:0.7;}.cls-2{fill:#596f7f;}.cls-3{fill:#577082;}</style></defs><title>mod-header-logo</title><g id="ヘッダーノーマル"><g id="logo-header"><path class="cls-2" d="M59.71,37.66A2.67,2.67,0,0,1,58,37.14a3.26,3.26,0,0,1-.66-.6,2.14,2.14,0,0,1-.39-.75,3.92,3.92,0,0,1-.16-.84c0-.24,0-.52,0-.85s0-.53,0-.85,0-.6,0-.85a8,8,0,0,1,.09-.84,3.7,3.7,0,0,1,.16-.83A2.17,2.17,0,0,1,57.4,30a2.89,2.89,0,0,1,.63-.63,2.53,2.53,0,0,1,.81-.37,2.88,2.88,0,0,1,.87-.14,2.56,2.56,0,0,1,.79.13,2.81,2.81,0,0,1,.72.35,2.37,2.37,0,0,1,.33.22c.07.05.13.15.23.11s.07-.06.07-.15V29c0-.4,0-.4,0-.81v-.8c0-.41,0-.41,0-.81s0-.4,0-.81a.27.27,0,0,1,.25-.26h1.32a.26.26,0,0,1,.25.26c0,.41,0,.41,0,.83s0,.41,0,.82,0,.41,0,.82,0,.42,0,.83,0,.41,0,.82v.82c0,.42,0,.42,0,.83s0,.41,0,.82,0,.34,0,.83V34c0,.27,0,.55,0,.83s0,.56,0,.82v.83c0,.49,0,.41,0,.82a.25.25,0,0,1-.24.26H62.1c-.32,0-.26-.36-.27-.57,0-.06,0-.11,0-.13s-.18.12-.23.16a2.2,2.2,0,0,1-.32.21,2.8,2.8,0,0,1-.73.32A3.16,3.16,0,0,1,59.71,37.66Zm.52-7a1.89,1.89,0,0,0-.85.17,1.27,1.27,0,0,0-.58.65,3.2,3.2,0,0,0-.17.87c0,.27,0,.57,0,.88a8.45,8.45,0,0,0,0,.89,3.11,3.11,0,0,0,.18.86,1.32,1.32,0,0,0,.55.68,1.89,1.89,0,0,0,.86.19,1.61,1.61,0,0,0,.85-.23,1.34,1.34,0,0,0,.58-.64,3.22,3.22,0,0,0,.15-.87,8.43,8.43,0,0,0,0-.88,8.61,8.61,0,0,0,0-.88,3.11,3.11,0,0,0-.19-.86,1.29,1.29,0,0,0-.58-.64,1.65,1.65,0,0,0-.84-.2Z"/><path class="cls-2" d="M71.14,33.11h-.29c-.27,0-.54,0-.81,0h-.12a.25.25,0,0,1-.25-.24c0-.06,0-.06,0-.12,0-.49,0-.49,0-1v-1c0-.49,0-.49,0-1a.82.82,0,0,0-.84-.74.85.85,0,0,0-.85.74c0,.48,0,.48,0,1s0,.48,0,1,0,.48,0,1c0,.06,0,.06,0,.12a.26.26,0,0,1-.25.25H66.53a.24.24,0,0,1-.23-.25c0-.06,0-.06,0-.12s0-.43,0-.86V31c0-.43,0-.43,0-.85s0-.43,0-.86v-.86c0-.43,0-.43,0-.86s0-.43,0-.86,0-.43,0-.86v-.12a.23.23,0,0,1,.24-.23h1.23a.23.23,0,0,1,.23.23c0,.06,0,.06,0,.12,0,.36,0,.36,0,.71s0,.36,0,.71a2.79,2.79,0,0,0,0,.5c0,.13.07.1.16,0a2.19,2.19,0,0,1,.41-.26,1.61,1.61,0,0,1,.7-.15,2,2,0,0,1,.8.16,2.18,2.18,0,0,1,.68.45,1.85,1.85,0,0,1,.47.66,2.08,2.08,0,0,1,.16.8s0,.4,0,.81,0,.41,0,.81,0,.41,0,.82,0,.4,0,.81c0,.06,0,.06,0,.12S71.28,33.1,71.14,33.11Z"/><path class="cls-2" d="M71.19,37.46h-4.7a.24.24,0,0,1-.24-.24c0-.61,0-.61,0-1.22a.25.25,0,0,1,.25-.24h4.69a.25.25,0,0,1,.25.24v1.22C71.43,37.37,71.32,37.43,71.19,37.46Z"/><path class="cls-2" d="M53.36,47.16c-.4,0-.4,0-.8,0H50.17a.46.46,0,0,1-.47-.49c0-.42,0-.42,0-.83s0-.42,0-.84,0-.42,0-.84c0,0,0-.41,0-.83s-.07-.42-.07-.84,0-.42,0-.84,0-.41,0-.83c0,0,0-.42,0-.84s0-.42,0-.83,0-.42,0-.84,0-.42,0-.84,0-.42,0-.83c0-.1,0-.46-.14-.41s-.16.3-.2.38c-.17.4-.16.41-.33.81s-.22.39-.39.79-.21.39-.38.8a8.19,8.19,0,0,1-.31.82c-.18.4-.18.4-.35.81s-.2.39-.38.79-.2.39-.37.8-.11.43-.29.83l-.34.81a.56.56,0,0,1-.49.3c-.45,0-.45,0-.89,0h-.89c-.44,0-.44,0-.88,0a.47.47,0,0,1-.43-.32c-.18-.4-.23-.38-.4-.78s-.14-.42-.31-.82-.21-.39-.38-.79-.2-.4-.38-.8l-.35-.81c-.17-.4-.11-.43-.28-.83l-.36-.81c-.17-.4-.21-.38-.38-.79s-.14-.42-.31-.82c0-.11-.08-.31-.18-.39s-.23.29-.23.41c0,.29,0,.57,0,.86s0,.42,0,.84,0,.41,0,.83v.84c0,.42-.05.42-.05.83v.84c0,.42,0,.42,0,.84v.83c0,.42,0,.42,0,.84s0,.42,0,.84,0,.42,0,.84,0,.41,0,.83a.45.45,0,0,1-.49.46c-.4,0-.4,0-.8,0H37c-.4,0-.4.06-.8.06l-.8,0a.53.53,0,0,1-.51-.52c0-.42,0-.42,0-.84s0-.42,0-.84,0-.42,0-.84a5.86,5.86,0,0,0,.07-.84c0-.42,0-.42,0-.84s0-.43,0-.85v-.84c0-.42,0-.31,0-.84,0-.24,0-.52,0-.84s0-.54,0-.84,0-.55,0-.84,0-.56,0-.85,0-.55,0-.84,0-.56,0-.84,0-.56,0-.84,0-.56,0-.85,0-.56,0-.84.06-.56.06-.84,0-.57,0-.84,0-.57,0-.84,0-.57,0-.85,0-.57,0-.84,0-.58,0-.84,0-.6,0-.84c0-.53,0-.42,0-.84a.57.57,0,0,1,.54-.54h.75c.38,0,.38.05.76.05s.37,0,.75,0,.38-.05.75-.05a.54.54,0,0,1,.49.29c.18.4.13.42.31.81s.2.39.37.78.16.41.33.8l.36.79c.17.4.13.41.31.81s.22.37.4.77.16.4.33.8c0,0,.16.39.34.79s.15.4.33.8.21.38.38.78.17.4.34.79.19.39.37.79c0,0,.14.41.32.8s.18.39.35.79.25.5.34.76.16.45.36.46.31-.32.38-.47a1.73,1.73,0,0,0,.1-.24l.21-.5c.1-.23.16-.52.29-.82s.25-.49.37-.77.25-.51.37-.79.19-.53.3-.8.23-.52.35-.79.28-.5.39-.77.2-.54.31-.81.22-.53.33-.79.22-.54.34-.8.21-.54.32-.8l.35-.79c.12-.28.29-.52.4-.77s.24-.56.34-.79c.21-.49.35-.78.35-.78a.47.47,0,0,1,.42-.33c.37,0,.37,0,.75,0s.38,0,.75,0h.76c.38,0,.38,0,.75,0a.52.52,0,0,1,.54.49v.84a6.81,6.81,0,0,0-.06.84c0,.42,0,.42,0,.84a8.14,8.14,0,0,0,0,.84c0,.42.08.42.08.84s0,.42,0,.84,0,.43,0,.85,0,.42,0,.84-.06.42-.06.84,0,.42,0,.84v.84c0,.42,0,.42,0,.85s0,.42,0,.84,0,.42,0,.84v.84c0,.42,0,.42,0,.84s0,.42,0,.84v.85c0,.42,0,.42,0,.84s-.06.42-.06.84.08.42.08.84,0,.42,0,.84,0,.42,0,.85,0,.42,0,.84,0,.42,0,.84a.54.54,0,0,1-.5.54Z"/><path class="cls-3" d="M8.91,35.6s.47-.47,1-.87l1-.79c.49-.4.52-.37,1-.76s.44-.47.93-.86.41-.21,1-.72c.28-.22.6-.5,1-.81l1-.8c.3-.25.59-.56.94-.84s.7-.44,1-.72.6-.58.94-.85.68-.48,1-.76.68-.48,1-.75.57-.63.91-.9.73-.42,1.06-.69.63-.55,1-.82l1-.79c.32-.26.59-.6.92-.87s.72-.44,1.05-.71l1-.8c.32-.27.62-.57.95-.84s.7-.47,1-.73.61-.58.93-.85l1-.81,1-.8c.33-.27.65-.55,1-.81s.7-.48,1-.75l1-.79,1-.82c.32-.26.68-.49,1-.75s.56-.65.89-.91l1-.79c.33-.27.68-.51,1-.78s.69-.5,1-.76l1-.79,1-.8c.34-.27.72-.48,1-.73s.66-.54,1-.8.63-.58,1-.84.66-.55,1-.8.62-.62.93-.87.71-.51,1-.75l1-.8c.28-.22.54-.81,1-.79s.77.51,1.07.75c.49.4.47.43,1,.83s.45.44.94.84.55.33,1,.73.31.33.94.84c.27.22.64.44,1,.75s.61.52,1,.81.65.5,1,.78.59.58.94.85.68.48,1,.75.58.6.92.87.7.46,1,.73.6.59.93.86l1,.79c.33.26.67.5,1,.77s.63.56,1,.82.72.45,1,.72.61.57.94.84.62.57,1,.84.71.46,1,.72.66.52,1,.79l1,.78,1,.82,1,.79,1,.82c.33.26.62.56,1,.83s.68.5,1,.77.7.48,1,.75.64.55,1,.81l1,.8c.33.27.58.63.9.89s.76.42,1.08.68.63.57,1,.83.59.62.91.88.73.45,1,.71.64.56,1,.82.66.55,1,.81.68.53,1,.78.72.49,1,.74l1,.8c.35.29.66.58,1,.82s.64.66.91.88.76.45.75.8c0,.12-.16.23-.24.32a4.33,4.33,0,0,1-.47.4c-.5.39-.51.37-1,.77s-.41.49-.91.89-.51.36-1,.76l-1,.79c-.49.4-.47.43-1,.83s-.53.35-1,.74-.45.46-.94.86l-1,.8-1,.79-1,.8-1,.8c-.49.4-.55.32-1,.72s-.51.37-1,.77-.49.41-1,.8l-1,.81c-.49.4-.45.44-.94.83l-1,.79c-.5.4-.33.33-1,.83l-1,.79c-.3.24-.68.45-1,.73s-.6.57-.94.85-.68.48-1,.75-.6.58-.94.85l-1,.81-1,.8c-.33.26-.64.54-1,.81s-.7.46-1,.73-.61.59-.94.85-.66.53-1,.8-.69.49-1,.75-.67.52-1,.79-.71.48-1,.74l-1,.8c-.33.27-.6.6-.93.87s-.64.56-1,.82-.71.48-1,.74l-1,.8c-.34.28-.62.61-.93.86s-.76.45-1.07.7-.64.64-.91.87c-.63.51-.48.42-1,.81-.1.09-.17.19-.27.27a1.47,1.47,0,0,1-.39.21c-.08,0-.23.18-.34.16s-.19-.14-.25-.19c-.23-.17-.42-.39-.65-.57-.49-.39-.53-.35-1-.74s-.44-.46-.93-.86-.57-.3-1.06-.69l-1-.81c-.49-.39-.45-.44-.94-.84s-.51-.37-1-.77-.34-.29-1-.8c-.27-.22-.57-.52-1-.83l-1-.8c-.31-.25-.71-.42-1.06-.7s-.58-.6-.92-.87-.64-.52-1-.79-.71-.45-1-.72-.56-.63-.9-.9l-1-.79-1-.79-1-.8c-.33-.26-.71-.45-1-.72s-.64-.55-1-.82-.6-.59-.93-.85-.74-.44-1.06-.7-.64-.55-1-.81-.62-.57-1-.84l-1-.78-1-.81c-.33-.27-.63-.58-.95-.84s-.73-.45-1.06-.71-.67-.52-1-.78-.63-.57-1-.83-.58-.63-.9-.89-.72-.46-1.05-.73l-1-.8c-.33-.27-.69-.5-1-.76s-.68-.52-1-.78-.57-.66-.89-.92-.75-.43-1.06-.69-.62-.6-.94-.85-.65-.57-1-.82-.76-.45-1.06-.7-.61-.64-.91-.88-.78-.49-1.05-.71A5.34,5.34,0,0,1,9,35.55S8.91,35.6,8.91,35.6Zm4.64,0c.49.4.54.34,1,.74l1,.8c.5.4.44.47.93.87s.57.32,1.06.72l1,.8c.5.4.46.45.95.85s.56.32,1.05.72.4.52.89.92.54.35,1,.75.53.35,1,.75.42.49.92.89.5.38,1,.78.55.33,1.05.72.43.47.92.87.51.39,1,.79.47.43,1,.83.53.37,1,.77l1,.81c.5.4.48.42,1,.82s.53.36,1,.76.47.43,1,.83.55.33,1.05.73.45.45.94.85l1,.81c.49.4.48.41,1,.81,0,0,.54.34,1,.74s.44.47.93.87.51.38,1,.78.54.34,1,.74.47.43,1,.84.46.44,1,.84.57.31,1.07.71a6.62,6.62,0,0,0,.89.91l1,.79c.49.4.47.42,1,.82s.54.35,1,.75.52.37,1,.77a5.48,5.48,0,0,1,.56.52c.11.11.23.3.39.28a1,1,0,0,0,.48-.25l.55-.48c.5-.4.45-.45,1-.85s.55-.33,1-.73.41-.5.9-.9.54-.34,1-.74l1-.8c.49-.4.37-.27,1-.78.27-.22.59-.51,1-.82s.66-.47,1-.76L61,58c.32-.25.62-.55,1-.83l1-.8c.32-.26.63-.56,1-.83s.69-.48,1-.75.65-.55,1-.82.6-.6.93-.87.75-.42,1.08-.69.58-.62.92-.89.68-.5,1-.77.7-.48,1-.75l1-.8,1-.81c.34-.27.59-.63.92-.9s.75-.42,1.08-.68.58-.64.91-.9.76-.43,1.08-.7.63-.58,1-.84l1-.8c.34-.27.64-.57,1-.83s.69-.51,1-.77.66-.55,1-.81.63-.6.95-.86.73-.47,1.05-.73l1-.79,1-.81,1-.81c.43-.35.79-.78,1.22-1.14a1.12,1.12,0,0,0,.37-.41c.08-.2-.08-.34-.22-.44s-.31-.25-.46-.38c-.5-.4-.46-.45-1-.85s-.51-.38-1-.78l-1-.81c-.5-.4-.53-.36-1-.76s-.46-.45-1-.85-.52-.37-1-.77l-1-.8c-.5-.4-.42-.5-.91-.9s-.59-.28-1.08-.68-.47-.43-1-.83-.47-.43-1-.82-.52-.37-1-.77-.41-.5-.9-.9-.53-.36-1-.76-.52-.37-1-.77-.52-.38-1-.78-.46-.43-1-.83-.53-.35-1-.75-.44-.48-.93-.88-.56-.32-1-.72-.44-.47-.93-.87l-1-.79c-.49-.4-.48-.43-1-.83S64.46,16,64,15.6s-.42-.5-.91-.9-.53-.36-1-.75-.48-.43-1-.83-.46-.43-1-.83S59.51,12,59,11.61s-.4-.51-.9-.91-.48-.42-1-.82-.52-.37-1-.77-.48-.42-1-.82-.56-.33-1-.73-.45-.46-1-.86a9.48,9.48,0,0,0-.85-.55,11.12,11.12,0,0,0-1.2-.71c-.31-.16-.69.39-.9.55-.49.4-.59.28-1.08.68s-.4.52-.89.92-.6.28-1.09.68a10.94,10.94,0,0,1-.93.87l-1,.8c-.49.4-.54.34-1,.74s-.49.41-1,.81-.44.47-.93.87l-1,.79c-.49.4-.5.39-1,.79s-.55.33-1,.73-.41.51-.9.91a8.63,8.63,0,0,0-1.06.71c-.49.4-.51.37-1,.77,0,0-.46.45-1,.85s-.46.43-1,.83-.52.37-1,.76-.44.47-.94.87-.54.34-1,.74-.5.38-1,.78-.48.42-1,.82-.47.43-1,.83-.47.42-1,.82-.48.41-1,.81-.53.35-1,.75-.52.37-1,.77-.44.46-.93.86-.47.44-1,.84-.56.31-1.06.71-.48.42-1,.82-.47.43-1,.83-.55.32-1.05.72-.46.44-1,.84-.45.45-.95.85-.47.44-1,.84l-1,.8c-.49.4-.53.35-1,.76A.07.07,0,0,0,13.55,35.59Z"/><path class="cls-2" d="M17.36,100.24H15.7c-.31,0-.28,0-.56,0a.61.61,0,0,1-.41-.17.62.62,0,0,1-.16-.41c0-.25,0-.25,0-.5s0-.25,0-.5v-.5c0-.25,0-.25,0-.5,0,0,0-.25,0-.5s0-.25,0-.5,0-.25,0-.5v-1c0-.25,0-.25,0-.5v-.5c0-.25,0-.25,0-.5,0,0,0-.43-.11-.27a1.33,1.33,0,0,0-.1.24c-.1.23-.11.23-.21.46s-.1.22-.2.46-.09.23-.19.46l-.2.47c-.1.23-.12.22-.22.45,0,0-.08.24-.18.47s-.12.22-.22.45-.08.24-.18.48-.12.22-.23.45a.53.53,0,0,1-.51.33,4.08,4.08,0,0,1-.46,0H10.18a.59.59,0,0,1-.54-.34c-.1-.24-.09-.24-.2-.47,0,0-.07-.18-.2-.46s-.11-.29-.19-.47-.15-.29-.22-.45-.11-.31-.18-.47L8.43,95c-.07-.16-.12-.32-.19-.47s-.14-.31-.2-.46l-.21-.46s-.08-.28-.13-.3,0,.06-.06.1,0,.16,0,.24v1s0,.25,0,.5,0,.25,0,.5,0,.25,0,.5,0,.25,0,.5,0,.25,0,.5,0,.25,0,.5v.5c0,.25,0,.25,0,.5s0,.25,0,.5v.5a.58.58,0,0,1-.16.4.63.63,0,0,1-.41.19c-.28,0-.28,0-.55,0H5.39c-.27,0-.27,0-.55,0a.56.56,0,0,1-.4-.16.57.57,0,0,1-.18-.4v-1c0-.25,0-.18,0-.5,0-.14,0-.32,0-.51s0-.32,0-.5v-.51c0-.16,0-.33,0-.51s0-.33,0-.5v-.51c0-.16,0-.33,0-.51v-.5c0-.17,0-.34,0-.51s0-.33,0-.5v-.51c0-.17,0-.33,0-.5v-2c0-.17,0-.34,0-.5v-1c0-.17,0-.34,0-.5s0-.35,0-.51,0-.34,0-.5v-.51c0-.18,0-.35,0-.51s0-.36,0-.5V85a.55.55,0,0,1,.18-.4.58.58,0,0,1,.4-.19c.26,0,.26,0,.52,0H6.94a.56.56,0,0,1,.52.34s.12.22.22.46.08.24.18.47c0,0,.09.17.22.46l.21.46c.06.15.12.3.2.47s.12.31.19.47.15.29.22.45.12.32.19.47l.2.47c.07.15.16.3.23.45s.13.32.19.47l.21.47c.07.15.12.31.19.47s.15.31.22.46.14.31.2.46.13.33.19.47a2.92,2.92,0,0,1,.14.31l.06.13s0,.09,0,.13,0,0,0,.08.05.16.11.15a.34.34,0,0,0,.06-.06.61.61,0,0,1,.07-.1.35.35,0,0,1,0-.08.31.31,0,0,0,.05-.1l.2-.46c.1-.23.09-.24.19-.47s.09-.17.21-.46c.06-.13.11-.29.19-.47l.2-.46c.07-.15.15-.3.22-.46s.11-.31.18-.47.13-.31.2-.46.15-.31.22-.46.12-.31.19-.47l.21-.46c.06-.16.12-.31.19-.47l.21-.46c.07-.16.14-.31.2-.46s.12-.33.19-.47.13-.34.19-.47c.12-.29.21-.46.21-.46a.57.57,0,0,1,.53-.34h1.57c.27,0,.27,0,.53,0a.52.52,0,0,1,.4.16A.55.55,0,0,1,18,85a4.87,4.87,0,0,0,0,.51c0,.25,0,.18,0,.5,0,.14,0,.31,0,.51V87c0,.16,0,.33,0,.51s0,.33,0,.5,0,.34,0,.51,0,.33,0,.51v.5c0,.17,0,.34,0,.51s0,.33,0,.51,0,.33,0,.5,0,.34,0,.51v.5c0,.17,0,.34,0,.51s0,.34,0,.51,0,.33,0,.5,0,.34,0,.51,0,.34,0,.5,0,.34,0,.51,0,.34,0,.51v.5c0,.18,0,.35,0,.51s0,.34,0,.51,0,.34,0,.5,0,.35,0,.51v.5c0,.2,0,.37,0,.51a3.62,3.62,0,0,1,0,.51.59.59,0,0,1-.16.4.57.57,0,0,1-.4.17Z"/><path class="cls-2" d="M35.6,100.24H33.25a.6.6,0,0,1-.56-.38c-.08-.24-.06-.25-.15-.49s-.09-.24-.17-.48-.08-.24-.17-.48-.07-.24-.16-.48a5.44,5.44,0,0,0-.37-.86c-.1-.18-.33-.1-.49-.1H29.07c-.27,0-.23,0-.53,0H27.49A1.18,1.18,0,0,0,27,97c-.16.07-.19.3-.25.45s-.07.25-.15.49-.1.23-.18.47-.08.25-.16.49-.07.24-.16.48-.1.24-.18.48a.57.57,0,0,1-.53.38H23.06a.59.59,0,0,1-.46-.26.57.57,0,0,1-.08-.52c.09-.24.1-.23.19-.47,0,0,.07-.24.15-.48s.11-.23.2-.47.05-.24.14-.48.11-.23.19-.46.05-.18.16-.49c.05-.13.12-.28.18-.46l.17-.48c.05-.15.11-.3.18-.47s.09-.31.15-.48.13-.3.19-.47.1-.31.16-.47.13-.31.19-.47.1-.32.16-.48.13-.31.19-.47.09-.32.15-.48.14-.3.2-.46.1-.32.16-.48.11-.32.17-.47.1-.32.16-.48.13-.31.19-.47l.18-.47.17-.48c.05-.16.11-.32.17-.47s.1-.32.16-.48.11-.32.17-.47.13-.32.19-.47.11-.32.16-.47.12-.34.17-.48.13-.34.18-.47c.11-.3.07-.24.15-.48a.59.59,0,0,1,.55-.38h.47c.23,0,.21,0,.46,0h.93a.58.58,0,0,1,.54.37c.08.24.09.24.17.48s.08.24.17.47l.16.48.17.47c.09.24.1.24.18.47a4.68,4.68,0,0,1,.19.47l.17.47c.05.14.11.3.17.48l.17.47.17.48c0,.15.13.3.19.47s.09.31.15.48.13.3.18.46l.18.48c.06.15.1.31.16.47s.12.32.17.48l.18.47c.06.16.11.32.17.47s.12.32.17.48.11.32.16.47.14.31.19.47.1.33.15.48.13.32.19.47l.17.48c0,.16.1.32.16.47s.12.32.18.48.14.31.19.46l.17.47c.07.18.11.34.17.48s.12.34.17.47c.11.3.08.24.16.48a.54.54,0,0,1-.07.52.56.56,0,0,1-.46.26ZM28,93.82s0,0,.08,0h.95s.27,0,.54,0l.5,0h.26a.72.72,0,0,0,.21,0c.18-.07,0-.39-.05-.49l-.14-.41-.14-.45c-.08-.23-.09-.23-.16-.45s0-.19-.14-.46-.11-.28-.16-.45l-.15-.45-.14-.45c0-.08-.09-.44-.21-.3a.88.88,0,0,0-.1.3l-.16.45-.14.45c-.08.23-.08.23-.15.45l-.14.46c-.08.22-.07.23-.14.45s-.09.22-.17.45-.06.23-.14.46a1.18,1.18,0,0,0-.12.36A.13.13,0,0,0,28,93.82Z"/><path class="cls-2" d="M52,100.23c-.26,0-.26,0-.53,0s-.26,0-.52,0-.27,0-.53,0h-.53c-.26,0-.26,0-.53,0a.59.59,0,0,1-.53-.32s-.09-.23-.21-.46L48.43,99c-.11-.23-.12-.22-.23-.45s-.09-.23-.21-.46-.12-.23-.23-.45l-.22-.46c-.11-.23-.1-.23-.21-.46s-.12-.23-.23-.46-.12-.22-.23-.45l-.22-.46c-.11-.22-.1-.23-.21-.46s-.1-.23-.22-.46a1.36,1.36,0,0,0-.11-.25.35.35,0,0,1,0-.08A.59.59,0,0,1,46,94c0-.08-.1-.06-.18-.06h-.79c-.12,0-.23,0-.34,0s-.32,0-.49,0-.09,0-.11,0,0,.08,0,.11a3,3,0,0,0,0,.31,2.62,2.62,0,0,0,0,.28,1.53,1.53,0,0,1,0,.3c0,.26,0,.26,0,.52s0,.25,0,.52v.51c0,.26,0,.26,0,.52s0,.26,0,.52,0,.25,0,.51,0,.26,0,.52v.52c0,.26,0,.26,0,.52a.59.59,0,0,1-.17.4.57.57,0,0,1-.41.17c-.28,0-.28,0-.56,0s-.28,0-.56,0-.27,0-.55,0-.28,0-.56,0a.56.56,0,0,1-.57-.56V98.15c0-.26,0-.26,0-.51s0-.25,0-.5,0-.26,0-.51v-.51c0-.25,0-.25,0-.5v-.51c0-.25,0-.25,0-.51v-.5c0-.14,0-.31,0-.51v-.5c0-.16,0-.33,0-.51s0-.33,0-.5,0-.34,0-.51,0-.34,0-.51,0-.33,0-.5,0-.34,0-.51,0-.34,0-.5,0-.34,0-.51V87c0-.18,0-.35,0-.51s0-.35,0-.51v-.5c0-.32,0-.51,0-.51a.55.55,0,0,1,.19-.4.54.54,0,0,1,.4-.18h6.25a4.35,4.35,0,0,1,.52.06,2.78,2.78,0,0,1,.5.11,4.13,4.13,0,0,1,.5.15,4,4,0,0,1,.47.21,2.89,2.89,0,0,1,.44.27,2.94,2.94,0,0,1,.41.31,3.06,3.06,0,0,1,.37.35,3,3,0,0,1,.32.39,3.08,3.08,0,0,1,.3.41c.09.14.18.29.26.44s.13.31.19.47.07.33.11.5a6.4,6.4,0,0,1,.12,1,11.42,11.42,0,0,1-.08,1,3.59,3.59,0,0,1-.12.47,2.57,2.57,0,0,1-.15.47c-.06.15-.13.3-.2.44s-.16.29-.25.42-.2.26-.3.38a3.87,3.87,0,0,1-.32.37c-.12.11-.25.21-.38.31l-.4.28c-.09.06-.42.17-.41.31a.25.25,0,0,0,.06.14,2.15,2.15,0,0,1,.18.24l.24.46c.12.23.1.24.22.47,0,0,.11.23.23.46s.12.16.27.44l.23.47c.08.14.15.3.23.46l.24.46.25.45c.08.16.15.32.23.47s.17.31.24.45l.25.46c.15.28.12.23.23.46a.58.58,0,0,1,0,.57.6.6,0,0,1-.5.27Zm-7.9-9.42c.07.08.33,0,.43,0H46c.23,0,.23,0,.46,0h.47a2.46,2.46,0,0,0,.49,0,2.07,2.07,0,0,0,.46-.15,1.73,1.73,0,0,0,.42-.25,1.61,1.61,0,0,0,.31-.38,1.79,1.79,0,0,0,.19-.45,2,2,0,0,0,0-.49,2.15,2.15,0,0,0,0-.45,1.4,1.4,0,0,0-.15-.42,1,1,0,0,0-.31-.32,1.53,1.53,0,0,0-.39-.25,2.32,2.32,0,0,0-.44-.08,3.24,3.24,0,0,0-.46,0c-.24,0-.24,0-.48,0H46c-.24,0-.24,0-.48,0s-.25,0-.49,0h-.77c-.08,0-.19,0-.21.1a2.28,2.28,0,0,0,0,.37c0,.24,0,.24,0,.48V89c0,.23,0,.23,0,.47s0,.24,0,.47,0,.24,0,.47-.07.31,0,.43A0,0,0,0,0,44.13,90.81Z"/><path class="cls-2" d="M60.22,100.24H58a.59.59,0,0,1-.4-.17.59.59,0,0,1-.16-.4c0-.26,0-.26,0-.51,0,0,0-.25,0-.51,0,0,0-.25,0-.5s0-.18,0-.51v-.5c0-.16,0-.33,0-.51s0-.33,0-.51,0-.33,0-.5,0-.33,0-.51,0-.33,0-.51v-.5c0-.17,0-.34,0-.51s0-.33,0-.5,0-.34,0-.51,0-.33,0-.5,0-.34,0-.51v-.51c0-.16,0-.33,0-.5s0-.34,0-.51,0-.34,0-.5,0-.34,0-.51v-.51c0-.17,0-.34,0-.5s0-.35,0-.51,0-.34,0-.5v-.51c0-.18,0-.35,0-.51V85a.59.59,0,0,1,.17-.41.56.56,0,0,1,.41-.16h1.67c.28,0,.28,0,.56,0a.59.59,0,0,1,.4.17.6.6,0,0,1,.18.4v1c0,.26,0,.26,0,.51V87c0,.25,0,.25,0,.5s0,.25,0,.51,0,.25,0,.5c0,0,0,.25,0,.51s0,.25,0,.5v.51c0,.25,0,.25,0,.51s0,.25,0,.5,0,.26,0,.51v.5c0,.26,0,.26,0,.51s0,.25,0,.51,0,.25,0,.5v1c0,.15,0,.32,0,.51s0,.33,0,.5,0,.34,0,.51v.51c0,.17,0,.34,0,.51s0,.34,0,.5,0,.34,0,.51,0,.35,0,.5v.51c0,.31,0,.25,0,.51a.55.55,0,0,1-.16.39.6.6,0,0,1-.4.18Z"/><path class="cls-2" d="M80,100.24H77.74a.56.56,0,0,1-.41-.16.54.54,0,0,1-.16-.41c0-.25,0-.25,0-.5s0-.25,0-.5,0-.25,0-.5,0-.25,0-.5c0,0,0-.25,0-.5v-.5c0-.25,0-.25,0-.5v-.5c0-.25,0-.25,0-.49s0-.25,0-.51,0-.24,0-.49,0-.25,0-.5c0-.08,0-.16,0-.24s0-.14-.06-.13-.13.29-.15.33l-.2.46-.2.46-.19.47c-.07.14-.14.3-.21.46s-.14.3-.2.46l-.22.46c-.07.16-.11.32-.18.47l-.2.46c-.12.28-.11.23-.21.46a.56.56,0,0,1-.53.33c-.23,0-.23,0-.46,0h-.93c-.23,0-.23,0-.46,0a.57.57,0,0,1-.54-.32s-.09-.24-.19-.47-.11-.22-.21-.46-.09-.23-.19-.46-.1-.23-.2-.46l-.2-.47-.2-.46c-.1-.23-.12-.22-.22-.46s-.08-.23-.18-.46l-.18-.41c0-.08-.06-.28-.17-.29s-.09.22-.08.27,0,.34,0,.5,0,.25,0,.5v.5c0,.25,0,.25,0,.5s0,.25,0,.5,0,.25,0,.5,0,.25,0,.5v.5c0,.25,0,.25,0,.5s0,.25,0,.5,0,.25,0,.5,0,.25,0,.5a.57.57,0,0,1-.17.4.6.6,0,0,1-.41.16h-.55c-.28,0-.28,0-.56,0s-.28,0-.56,0h-.55a.58.58,0,0,1-.41-.16.57.57,0,0,1-.16-.41c0-.26,0-.26,0-.51v-.51c0-.14,0-.31,0-.5s0-.32,0-.51,0-.33,0-.5,0-.33,0-.51,0-.33,0-.51,0-.33,0-.5V94.1c0-.17,0-.34,0-.51v-.5c0-.17,0-.34,0-.51s0-.33,0-.5v-1c0-.17,0-.33,0-.5s0-.34,0-.51,0-.34,0-.5,0-.35,0-.51,0-.34,0-.51,0-.34,0-.5,0-.35,0-.51,0-.34,0-.5,0-.35,0-.51,0-.35,0-.51,0-.36,0-.5c0-.33,0-.26,0-.51a.53.53,0,0,1,.17-.4.57.57,0,0,1,.4-.17c.26,0,.26,0,.52,0h1.58a.59.59,0,0,1,.53.35c.1.23.09.24.19.47s.11.23.21.46.12.22.22.46.08.24.18.47.13.22.23.45l.19.47c.06.13.12.3.2.47l.2.47c.06.15.13.3.2.46l.21.46.21.46c.07.16.13.32.19.48l.22.45c.07.16.15.31.21.46l.19.48c.07.16.15.31.21.46s.11.25.16.37l0,.13.08.12s0,.14.09.17.11,0,.14-.06l.11-.27c.1-.23.11-.23.21-.46l.2-.46c.1-.23.08-.24.18-.47,0,0,.11-.23.21-.47s.08-.17.21-.46l.18-.47.2-.46c.07-.15.15-.3.22-.46s.12-.31.19-.47.14-.3.2-.46l.21-.46c.07-.16.13-.31.2-.46l.2-.47c.07-.16.13-.32.2-.46l.19-.47.2-.47c.12-.29.11-.22.21-.46a.57.57,0,0,1,.52-.34h.52c.27,0,.27,0,.53,0s.26,0,.52,0H80a.56.56,0,0,1,.4.16.61.61,0,0,1,.19.4c0,.25,0,.25,0,.51v1s0,.18,0,.51c0,.14,0,.31,0,.5V88c0,.15,0,.32,0,.5V89c0,.16,0,.33,0,.5v.51c0,.17,0,.33,0,.51s0,.33,0,.5,0,.34,0,.51,0,.34,0,.5,0,.34,0,.51,0,.34,0,.51,0,.33,0,.5,0,.34,0,.51,0,.34,0,.5,0,.34,0,.51,0,.34,0,.51,0,.34,0,.5v.51c0,.17,0,.34,0,.51v.5c0,.18,0,.35,0,.51s0,.35,0,.5,0,.37,0,.51c0,.32,0,.51,0,.51a.58.58,0,0,1-.16.4.57.57,0,0,1-.4.17Z"/><path class="cls-2" d="M91.93,100.37c-.17,0-.34,0-.51,0s-.35,0-.51-.06-.34-.08-.5-.12l-.5-.13c-.16-.06-.31-.14-.47-.21A3.25,3.25,0,0,1,89,99.6c-.15-.09-.3-.18-.44-.28s-.28-.2-.41-.31-.24-.24-.36-.36-.25-.24-.36-.37-.2-.28-.3-.42-.19-.29-.28-.43-.16-.31-.23-.47a3,3,0,0,1-.19-.48c0-.15-.07-.32-.11-.51s-.07-.32-.09-.51,0-.34,0-.52,0-.34,0-.53,0-.33,0-.52,0-.33,0-.52,0-.34,0-.52,0-.34,0-.52v-.52c0-.18,0-.36,0-.52s0-.36,0-.53,0-.35,0-.51,0-.37,0-.53,0-.36,0-.52,0-.36.06-.52a3.29,3.29,0,0,1,.14-.5,3.53,3.53,0,0,1,.17-.49c.07-.15.15-.3.24-.46a3.48,3.48,0,0,1,.27-.44,4,4,0,0,1,.32-.4,3.06,3.06,0,0,1,.34-.39,4.17,4.17,0,0,1,.38-.34c.13-.11.27-.21.41-.31s.28-.2.43-.29a4.76,4.76,0,0,1,.45-.24c.16-.07.31-.14.48-.2s.33-.08.5-.12a4,4,0,0,1,.5-.11l.51-.08c.17,0,.34,0,.51,0s.35,0,.52,0l.51.06c.17,0,.34.08.5.12l.49.16c.17.06.33.11.49.18l.45.23c.15.09.3.18.44.28s.27.22.4.33.25.23.37.35a4.17,4.17,0,0,1,.36.37,3.93,3.93,0,0,1,.29.42,4,4,0,0,1,.27.44,5.2,5.2,0,0,1,.25.46c.07.15.12.31.18.48a5,5,0,0,1,.11.51c0,.15,0,.33.07.52s.05.32.06.51,0,.34,0,.53l0,.51c0,.17,0,.34,0,.53s0,.34,0,.52,0,.34,0,.52,0,.35,0,.52v.52c0,.19,0,.36,0,.52s0,.36,0,.52,0,.36,0,.53,0,.36-.05.51,0,.37,0,.52a4.83,4.83,0,0,1-.12.51,3.12,3.12,0,0,1-.18.49c-.07.15-.14.3-.23.46a4.08,4.08,0,0,1-.28.44,2.94,2.94,0,0,1-.31.41,4.14,4.14,0,0,1-.35.38c-.12.12-.26.22-.39.34s-.26.22-.4.32-.29.18-.44.27a4.79,4.79,0,0,1-.45.25c-.15.07-.31.13-.48.19l-.49.15-.5.1c-.17,0-.34.06-.51.07a4.47,4.47,0,0,1-.52,0Zm0-12.7a2.89,2.89,0,0,0-.52,0,2.35,2.35,0,0,0-.49.17,2.06,2.06,0,0,0-.44.27,1.74,1.74,0,0,0-.36.37,2.07,2.07,0,0,0-.27.41,1.9,1.9,0,0,0-.19.45c0,.14,0,.3-.06.49s0,.31-.06.49,0,.31,0,.49,0,.32,0,.5,0,.31,0,.49,0,.32,0,.49,0,.34,0,.49,0,.34,0,.49,0,.35,0,.5,0,.34,0,.49,0,.35,0,.49a3.78,3.78,0,0,0,.09.48,1.86,1.86,0,0,0,.15.47,2.7,2.7,0,0,0,.29.4,2.13,2.13,0,0,0,.37.36,2,2,0,0,0,.44.26,1.89,1.89,0,0,0,.49.17,2.09,2.09,0,0,0,.51.07,2.75,2.75,0,0,0,.52-.06,2.44,2.44,0,0,0,.5-.15,2.52,2.52,0,0,0,.79-.66,3.24,3.24,0,0,0,.28-.4,1.9,1.9,0,0,0,.19-.45c0-.14.06-.3.09-.49s0-.31,0-.49,0-.31,0-.49,0-.32,0-.5,0-.31,0-.49,0-.32,0-.49,0-.34,0-.49,0-.34,0-.5,0-.34,0-.49,0-.34,0-.49,0-.35,0-.49,0-.36-.06-.49a1.63,1.63,0,0,0-.18-.46,3.21,3.21,0,0,0-.27-.41,2.7,2.7,0,0,0-.38-.35,2.37,2.37,0,0,0-.44-.28,2.17,2.17,0,0,0-.49-.16,2.82,2.82,0,0,0-.52,0Z"/><path class="cls-2" d="M7.85,120.58h-3a.3.3,0,0,1-.3-.31c0-.25,0-.25,0-.49v-1.48c0-.14,0-.31,0-.49s0-.32,0-.5,0-.32,0-.49v-1c0-.17,0-.33,0-.5s0-.32,0-.49,0-.33,0-.49,0-.33,0-.49,0-.34,0-.5,0-.33,0-.49v-.49c0-.19,0-.35,0-.49v-.5a.3.3,0,0,1,.31-.3H7.93a4.06,4.06,0,0,1,.51,0,2.77,2.77,0,0,1,.5.1,2.48,2.48,0,0,1,.48.17,2,2,0,0,1,.45.24,2.37,2.37,0,0,1,.39.32,3,3,0,0,1,.35.36,2.42,2.42,0,0,1,.29.42,3.5,3.5,0,0,1,.24.47,2.78,2.78,0,0,1,.17.51,3.45,3.45,0,0,1,.07.52c0,.16,0,.33,0,.53s0,.34,0,.53,0,.34,0,.54v.53c0,.2,0,.38,0,.54s0,.38,0,.54,0,.38-.08.53a2.29,2.29,0,0,1-.15.52,3.67,3.67,0,0,1-.27.46,2.55,2.55,0,0,1-.3.41,4.21,4.21,0,0,1-.36.37,2.94,2.94,0,0,1-.41.31,3.21,3.21,0,0,1-.45.24,4,4,0,0,1-.49.15,2.8,2.8,0,0,1-.5.12,4.34,4.34,0,0,1-.51,0Zm-1.31-1.92a.18.18,0,0,0,.17,0H7.79a2.7,2.7,0,0,0,.52,0,1.87,1.87,0,0,0,.5-.2,1.51,1.51,0,0,0,.36-.39,1.12,1.12,0,0,0,.21-.51,2.85,2.85,0,0,0,.07-.54c0-.16,0-.34,0-.56s0-.35,0-.55v-.47c0-.18,0-.33,0-.47s0-.34,0-.47a2.87,2.87,0,0,0-.09-.46,1.41,1.41,0,0,0-.22-.42,1.75,1.75,0,0,0-.36-.36A1.4,1.4,0,0,0,8.3,113a2.64,2.64,0,0,0-.51,0h-1c-.1,0-.28,0-.31.09a1.42,1.42,0,0,0,0,.46c0,.17,0,.33,0,.49s0,.26,0,.52v1.55c0,.17,0,.34,0,.52s0,.35,0,.52,0,.36,0,.52,0,.37,0,.52S6.43,118.56,6.54,118.66Z"/><path class="cls-2" d="M19.28,120.6c-.26,0-.26,0-.52,0H16.7c-.26,0-.26,0-.51,0l-.52,0H13.61a.3.3,0,0,1-.31-.3c0-.25,0-.25,0-.49s0-.25,0-.5,0-.24,0-.49,0-.24,0-.49v-.49c0-.25,0-.25,0-.5v-.49c0-.25,0-.25,0-.49v-.49s0-.25,0-.5,0-.24,0-.49v-.49c0-.25,0-.25,0-.49v-.5s0-.24,0-.49,0-.25,0-.49,0-.25,0-.49,0-.25,0-.5a.31.31,0,0,1,.31-.31h4.63c.26,0,.26,0,.52,0s.26,0,.52,0a.3.3,0,0,1,.31.3v.85c0,.21,0,.21,0,.42a.31.31,0,0,1-.3.32H15.77c-.14,0-.46-.07-.51.11a1.29,1.29,0,0,0,0,.48c0,.12,0,.24,0,.37a3.69,3.69,0,0,1,0,.47.65.65,0,0,0,0,.39.7.7,0,0,0,.47.1,3.85,3.85,0,0,1,.48,0h2.41a.32.32,0,0,1,.32.31c0,.3,0,.3,0,.6v.59a.31.31,0,0,1-.31.31H15.75a1.24,1.24,0,0,0-.43,0c-.12,0-.06.39-.06.48v.5c0,.11,0,.22,0,.33a3,3,0,0,0,0,.42c0,.07,0,.17,0,.21s.16,0,.22,0a2.26,2.26,0,0,0,.37,0h3.35a.3.3,0,0,1,.3.31v.84c0,.22,0,.22,0,.43a.32.32,0,0,1-.31.32Z"/><path class="cls-2" d="M28.42,120.58H27.15a.32.32,0,0,1-.26-.15l-.26-.42c-.14-.2-.15-.2-.28-.41s-.12-.22-.25-.43-.15-.2-.28-.41l-.26-.42c-.08-.12-.17-.26-.26-.42l-.28-.41c-.08-.14-.16-.29-.25-.43l-.28-.41-.26-.42-.28-.42-.26-.42c0-.08-.09-.22-.18-.26s-.12.11-.11.18,0,.41,0,.62,0,.24,0,.48v.48c0,.14,0,.3,0,.48v1.92c0,.18,0,.34,0,.48v.48a.3.3,0,0,1-.3.31H21.77a.3.3,0,0,1-.3-.31c0-.25,0-.25,0-.49s0-.25,0-.5v-.49c0-.25,0-.25,0-.49s0-.25,0-.49,0-.25,0-.5v-1c0-.25,0-.25,0-.49s0-.25,0-.5v-2c0-.16,0-.32,0-.49s0-.33,0-.49v-.49c0-.3,0-.25,0-.5a.29.29,0,0,1,.3-.3H23a.3.3,0,0,1,.26.15l.28.41c.13.21.12.21.26.42s.12.22.26.42l.26.42c.14.21.15.2.28.41l.27.42.26.42.27.42.27.42.25.42.27.42a4.66,4.66,0,0,1,.3.47c0,.09.11.27.22.26a1.7,1.7,0,0,0,0-.45c0-.16,0-.33,0-.5s0-.21,0-.53c0-.15,0-.33,0-.53v-.52c0-.17,0-.35,0-.53V113c0-.18,0-.36,0-.52v-1.06a.3.3,0,0,1,.31-.3h1.34a.31.31,0,0,1,.32.3v1c0,.24,0,.24,0,.49v.49c0,.25,0,.25,0,.49v.5c0,.24,0,.24,0,.49s0,.24,0,.49,0,.25,0,.49v.5c0,.24,0,.24,0,.49v.49c0,.25,0,.25,0,.49v.5c0,.24,0,.24,0,.49v1c0,.25,0,.25,0,.5a.3.3,0,0,1-.3.31Z"/><path class="cls-2" d="M34.38,120.58H33a.31.31,0,0,1-.32-.31c0-.25,0-.25,0-.49v-1.47c0-.16,0-.32,0-.5s0-.32,0-.49v-3.92a1.67,1.67,0,0,0,0-.39c0-.11-.09-.11-.2-.11h-1.9a.31.31,0,0,1-.31-.31c0-.3,0-.3,0-.6s0-.3,0-.6a.31.31,0,0,1,.31-.31h6.2a.32.32,0,0,1,.32.31c0,.3,0,.3,0,.6v.6a.31.31,0,0,1-.31.31h-.53c-.26,0-.26,0-.53,0a4.87,4.87,0,0,1-.54,0l-.28,0c-.06,0-.17,0-.21,0s0,.17,0,.23a4.33,4.33,0,0,0,0,.72v1.47c0,.25,0,.25,0,.49v2.46c0,.24,0,.24,0,.49s0,.24,0,.49v1A.31.31,0,0,1,34.38,120.58Z"/><path class="cls-2" d="M45,120.6H43.61a.31.31,0,0,1-.29-.21l-.16-.44c-.08-.23-.08-.22-.16-.44s-.08-.22-.15-.45-.08-.35-.23-.42a.94.94,0,0,0-.41,0H40.76l-.51,0c-.12,0-.28-.05-.38,0a.36.36,0,0,0-.13.17,4.48,4.48,0,0,0-.27.69c-.07.22-.08.22-.16.44s-.06.23-.14.45a.3.3,0,0,1-.3.21H37.46a.3.3,0,0,1-.26-.13.3.3,0,0,1,0-.29c.08-.23.07-.23.16-.47s.09-.23.18-.46c0,0,.05-.18.16-.47l.17-.46c.06-.15.12-.3.18-.47l.16-.47c.06-.15.11-.3.17-.46s.11-.31.17-.47.12-.31.17-.46.12-.31.17-.47.11-.32.17-.47.12-.31.17-.47.12-.31.17-.46.11-.32.17-.47.11-.32.16-.47.12-.32.17-.47.13-.31.18-.46.12-.33.17-.47l.18-.46a.3.3,0,0,1,.28-.21H41.8a.31.31,0,0,1,.3.21c.08.23.07.23.15.47s.1.23.19.46.07.24.15.47l.18.47c.08.23.08.23.17.46l.18.46.16.47c.09.23.08.24.17.47l.16.47c.09.23.1.23.18.46s.09.23.17.47l.16.47s.08.18.18.46l.16.47c0,.15.12.3.18.46s.11.32.17.47.1.32.16.47.13.33.18.46a4.7,4.7,0,0,1,.16.47.31.31,0,0,1,0,.28.29.29,0,0,1-.26.13Zm-4.6-3.84h0a1.2,1.2,0,0,0,.5,0,8.45,8.45,0,0,0,.87,0s.2,0,.24,0,0-.21-.06-.27,0-.17-.07-.25c-.08-.26-.09-.26-.18-.52l-.16-.52-.15-.44a2.65,2.65,0,0,0-.12-.37c-.1-.17-.17,0-.2.11s-.15.46-.22.69-.1.26-.18.53-.19.49-.26.74a1,1,0,0,1,0,.14C40.4,116.7,40.37,116.73,40.42,116.76Z"/><path class="cls-2" d="M52.57,120.59H46.9a.29.29,0,0,1-.3-.3c0-.25,0-.25,0-.49v-.5c0-.24,0-.24,0-.49v-.49c0-.25,0-.25,0-.49s0-.25,0-.5v-.49c0-.25,0-.25,0-.49s0-.25,0-.49,0-.25,0-.5,0-.24,0-.49,0-.24,0-.49v-3a.31.31,0,0,1,.31-.31h1.35a.31.31,0,0,1,.31.31c0,.25,0,.25,0,.49s0,.24,0,.48,0,.25,0,.49v.49c0,.24,0,.24,0,.48v1c0,.24,0,.24,0,.49s0,.24,0,.48v1c0,.24,0,.24,0,.48v.49c0,.21,0,.42,0,.64s0,.26.12.3a.63.63,0,0,0,.24,0h.21c.15,0,.3,0,.45,0s.25,0,.5,0h2.51a.3.3,0,0,1,.3.31v.42c0,.21,0,.21,0,.42s0,.22,0,.43a.3.3,0,0,1-.3.31Z"/><path class="cls-2" d="M63.33,120.59H62a.31.31,0,0,1-.31-.31v-.51c0-.26,0-.26,0-.51v-.51c0-.25,0-.25,0-.51v-.51c0-.25,0-.25,0-.51a2.43,2.43,0,0,0,0-.49H59.26c-.15,0-.46-.07-.48.16a8.22,8.22,0,0,0,0,.86v.51c0,.26,0,.26,0,.51s0,.26,0,.51v.51c0,.25,0,.25,0,.51a.29.29,0,0,1-.3.3H57.13a.31.31,0,0,1-.31-.31v-2c0-.25,0-.25,0-.49s0-.25,0-.5,0-.24,0-.49v-.49c0-.25,0-.25,0-.49v-.5c0-.24,0-.24,0-.49s0-.24,0-.49v-.49c0-.25,0-.25,0-.5s0-.24,0-.49,0-.25,0-.49,0-.25,0-.49v-.5a.31.31,0,0,1,.31-.31h1.34a.31.31,0,0,1,.32.3c0,.25,0,.25,0,.5v.5s0,.25,0,.5,0,.25,0,.49v.5c0,.17,0,.34,0,.51v.25s0,.11,0,.14.28.11.38.11h1.56a3.09,3.09,0,0,1,.43,0,1,1,0,0,0,.25,0c.08,0,.18,0,.25,0s0-.35,0-.47,0-.25,0-.5v-1c0-.25,0-.25,0-.5v-.5c0-.25,0-.25,0-.5a.3.3,0,0,1,.3-.31h1.35a.3.3,0,0,1,.3.31s0,.25,0,.49v1c0,.24,0,.18,0,.49v1.48c0,.16,0,.32,0,.49s0,.33,0,.49v1c0,.16,0,.33,0,.49s0,.33,0,.5v1.47c0,.19,0,.36,0,.5,0,.3,0,.49,0,.49a.29.29,0,0,1-.3.3Z"/><path class="cls-2" d="M69,120.66a4.55,4.55,0,0,1-.53,0l-.51-.1a4.29,4.29,0,0,1-.5-.19,2.56,2.56,0,0,1-.45-.27,3.32,3.32,0,0,1-.42-.32,2.57,2.57,0,0,1-.34-.4,2.8,2.8,0,0,1-.3-.43,3.39,3.39,0,0,1-.23-.47,3.84,3.84,0,0,1-.1-.51c0-.15,0-.32,0-.52s0-.33,0-.52,0-.33,0-.52v-.53c0-.18,0-.36,0-.52s0-.36,0-.52,0-.37,0-.52,0-.37.06-.52a2.68,2.68,0,0,1,.11-.5,3.41,3.41,0,0,1,.22-.48,3.59,3.59,0,0,1,.28-.44c.11-.13.24-.25.37-.38a4.54,4.54,0,0,1,.41-.33,2.9,2.9,0,0,1,.46-.26,2.38,2.38,0,0,1,.49-.19,2.71,2.71,0,0,1,.51-.12,4.58,4.58,0,0,1,.53,0,2.89,2.89,0,0,1,.52,0,3,3,0,0,1,.52.11,3.54,3.54,0,0,1,.49.18,3.82,3.82,0,0,1,.45.27,3.56,3.56,0,0,1,.42.32,2.57,2.57,0,0,1,.35.4,3.11,3.11,0,0,1,.31.43,4,4,0,0,1,.21.47,3,3,0,0,1,.11.51c0,.15,0,.32.06.52s0,.33,0,.52,0,.33,0,.52,0,.34,0,.52,0,.37,0,.53,0,.36,0,.52,0,.37,0,.52,0,.37,0,.52a2.45,2.45,0,0,1-.12.5,2.26,2.26,0,0,1-.21.48,3,3,0,0,1-.3.43c-.11.13-.22.27-.35.4l-.41.32a4.25,4.25,0,0,1-.46.27,3.54,3.54,0,0,1-.49.18,4.37,4.37,0,0,1-.52.12,4.28,4.28,0,0,1-.52,0ZM69,113a1.91,1.91,0,0,0-.43,0,1.5,1.5,0,0,0-.38.19,1.58,1.58,0,0,0-.32.29,1.38,1.38,0,0,0-.24.41,2.16,2.16,0,0,0-.09.48c0,.13,0,.28,0,.47s0,.3,0,.48v.48c0,.18,0,.34,0,.49v.48c0,.19,0,.34,0,.48a2.06,2.06,0,0,0,.09.47,1.2,1.2,0,0,0,.24.41,1.46,1.46,0,0,0,.7.47,1.44,1.44,0,0,0,.43.06,1.32,1.32,0,0,0,.42-.07,1.34,1.34,0,0,0,.4-.17,1.25,1.25,0,0,0,.31-.29,1.3,1.3,0,0,0,.23-.42,1.82,1.82,0,0,0,.11-.46c0-.14,0-.29,0-.48s0-.3,0-.48v-.49c0-.17,0-.33,0-.48s0-.34,0-.48,0-.34,0-.48a2,2,0,0,0-.1-.47,1.36,1.36,0,0,0-.23-.41,1.49,1.49,0,0,0-.31-.3,1.34,1.34,0,0,0-.4-.17,1.73,1.73,0,0,0-.42,0Z"/><path class="cls-2" d="M77.64,120.67a4.94,4.94,0,0,1-1-.13,3.68,3.68,0,0,1-.47-.15,3.48,3.48,0,0,1-.43-.22,3,3,0,0,1-.41-.29,2.79,2.79,0,0,1-.35-.34,2.88,2.88,0,0,1-.3-.39,3.55,3.55,0,0,1-.23-.43c-.06-.15-.11-.31-.16-.47a4,4,0,0,1-.09-.48,3.87,3.87,0,0,1,0-.49c0-.25,0-.25,0-.49s0-.25,0-.49,0-.24,0-.49v-4.4a.3.3,0,0,1,.31-.3h.89c.23,0,.23,0,.45,0a.33.33,0,0,1,.32.32c0,.26,0,.26,0,.52s0,.26,0,.52v1c0,.26,0,.26,0,.52v.52c0,.26,0,.26,0,.52s0,.26,0,.52v.52c0,.26,0,.26,0,.52s0,.26,0,.52a2.44,2.44,0,0,0,0,.48,1.35,1.35,0,0,0,.19.46,1.1,1.1,0,0,0,.33.35,1.4,1.4,0,0,0,.44.22,1.88,1.88,0,0,0,.49.06,1.8,1.8,0,0,0,.48-.06,1.51,1.51,0,0,0,.44-.22,1.37,1.37,0,0,0,.33-.35,1.44,1.44,0,0,0,.19-.46,1.82,1.82,0,0,0,0-.48c0-.26,0-.26,0-.52v-.52c0-.26,0-.26,0-.52v-.52c0-.26,0-.26,0-.52V114c0-.26,0-.26,0-.52s0-.26,0-.52,0-.26,0-.52,0-.26,0-.52,0-.26,0-.52a.31.31,0,0,1,.31-.31h1.35a.3.3,0,0,1,.3.31c0,.25,0,.25,0,.49s0,.25,0,.49v.49c0,.24,0,.24,0,.49v.49c0,.24,0,.24,0,.49s0,.24,0,.48,0,.25,0,.49,0,.25,0,.49v1c0,.24,0,.24,0,.49a3.93,3.93,0,0,1,0,.49c0,.17-.07.33-.11.48s-.1.32-.16.47a3.62,3.62,0,0,1-.24.43,2.88,2.88,0,0,1-.3.39,2.26,2.26,0,0,1-.35.34c-.13.1-.26.2-.4.29l-.44.22c-.15.06-.31.1-.47.15a4,4,0,0,1-.48.09,3.89,3.89,0,0,1-.49,0Z"/><path class="cls-2" d="M86,120.67c-.17,0-.33,0-.49,0a3.71,3.71,0,0,1-.48,0,3.41,3.41,0,0,1-.48-.09,3.68,3.68,0,0,1-.47-.15,4.32,4.32,0,0,1-.45-.19l-.43-.22c-.14-.08-.27-.18-.41-.27l-.38-.31a.31.31,0,0,1,0-.44c.14-.16.14-.17.29-.33l.29-.34.3-.33a.32.32,0,0,1,.24-.11.28.28,0,0,1,.19.07,3.71,3.71,0,0,0,.41.28,4.78,4.78,0,0,0,.45.23l.47.17.49.1a4.38,4.38,0,0,0,.5,0,2.45,2.45,0,0,0,.48,0,1.55,1.55,0,0,0,.46-.14.83.83,0,0,0,.36-.3.78.78,0,0,0,.15-.45.87.87,0,0,0-.11-.44.85.85,0,0,0-.33-.32,1.41,1.41,0,0,0-.45-.12l-.64-.1-.53-.07a4.35,4.35,0,0,1-.52-.1,4.2,4.2,0,0,1-.5-.17c-.16-.08-.31-.17-.46-.26a2.64,2.64,0,0,1-.4-.35,2.15,2.15,0,0,1-.32-.41A2.08,2.08,0,0,1,83,115a2.74,2.74,0,0,1-.15-.51,2.91,2.91,0,0,1,0-.52,3.91,3.91,0,0,1,0-.49A2.49,2.49,0,0,1,83,113a1.74,1.74,0,0,1,.17-.45,2.23,2.23,0,0,1,.27-.41,2.73,2.73,0,0,1,.33-.35,2.86,2.86,0,0,1,.4-.28,3.55,3.55,0,0,1,.44-.21,3.23,3.23,0,0,1,.47-.15c.15,0,.31,0,.48-.06a3.91,3.91,0,0,1,.49,0,4.61,4.61,0,0,1,.53,0,5.07,5.07,0,0,1,.54.09,3.1,3.1,0,0,1,.52.15l.5.19a4.52,4.52,0,0,1,.49.25c.15.08.31.17.46.27a.3.3,0,0,1,.13.2.28.28,0,0,1,0,.23l-.25.37c-.12.18-.11.19-.24.37s-.13.18-.26.37a.29.29,0,0,1-.25.13.36.36,0,0,1-.17,0,3.24,3.24,0,0,0-1-.48,4.94,4.94,0,0,0-.52-.13,3.27,3.27,0,0,0-.54,0,1.73,1.73,0,0,0-.55.1.89.89,0,0,0-.47.32.94.94,0,0,0-.15.54.67.67,0,0,0,.15.44,1.13,1.13,0,0,0,.39.27,2.31,2.31,0,0,0,.46.13l.49.06.49.06a3.41,3.41,0,0,1,.48.09,3,3,0,0,1,.45.15,2.55,2.55,0,0,1,.44.2,2.32,2.32,0,0,1,.39.29,3.51,3.51,0,0,1,.33.34,2,2,0,0,1,.26.41,2.53,2.53,0,0,1,.21.44,3.84,3.84,0,0,1,.11.46,2.74,2.74,0,0,1,0,.48,4.06,4.06,0,0,1,0,.51,2.51,2.51,0,0,1-.12.49,2.15,2.15,0,0,1-.22.46,1.9,1.9,0,0,1-.3.4,2,2,0,0,1-.36.35,2.62,2.62,0,0,1-.43.27,3.19,3.19,0,0,1-.46.2,3.66,3.66,0,0,1-.5.12l-.5.07-.5,0Z"/><path class="cls-2" d="M97.17,120.59H91.5a.3.3,0,0,1-.31-.3c0-.25,0-.25,0-.49s0-.25,0-.5,0-.24,0-.49v-.49c0-.25,0-.25,0-.49v-1.48c0-.16,0-.32,0-.49s0-.33,0-.5,0-.32,0-.49v-1c0-.16,0-.33,0-.49s0-.33,0-.49,0-.34,0-.49,0-.36,0-.5v-.49a.3.3,0,0,1,.3-.31h5.67a.31.31,0,0,1,.31.31s0,.21,0,.42,0,.22,0,.43,0,.21,0,.42a.31.31,0,0,1-.3.32h-3c-.25,0-.25,0-.5,0a1.71,1.71,0,0,0-.32,0c-.11,0-.21,0-.22.13s0,.3,0,.44,0,.26,0,.39,0,.3,0,.45a2,2,0,0,1,0,.25c0,.07,0,.14,0,.2s.45,0,.49,0h1c.24,0,.24,0,.49,0h1c.24,0,.24,0,.48,0a.3.3,0,0,1,.31.3v1.19a.31.31,0,0,1-.31.31h-3c-.07,0-.27-.06-.32,0s0,.14,0,.18c0,.26,0,.52,0,.79s0,.28,0,.43a2.1,2.1,0,0,0,0,.56h4a.31.31,0,0,1,.31.31c0,.21,0,.21,0,.42s0,.21,0,.42v.43A.31.31,0,0,1,97.17,120.59Z"/><path class="cls-2" d="M1.26,106.45c-.35,0-.41-1.31.25-1.17a4.2,4.2,0,0,0,1.41-.13,39.51,39.51,0,0,1,4.87.09c3,0,6,0,9,0h21.6l42.22,0,10.55,0c1.84,0,3.7.05,5.53.05.84,0,4.32-.59,4.27.49,0,.9-1.83.6-2.51.49a21,21,0,0,0-3.27.09c-2.9,0-5.7.08-8.54.08-14.33,0-28.77-.18-43.21-.18-3.86,0-42.21.11-42.21.19"/></g></g></svg>