<svg id="レイヤー_1" data-name="レイヤー 1" xmlns="http://www.w3.org/2000/svg" viewBox="0 0 194.18 88.42"><defs><style>.cls-1{fill:#fff}</style></defs><path class="cls-1" d="M132.65 240.43v-26.79h10.26c3.81 0 7.88 2 7.88 7.5a5.76 5.76 0 0 1-3.49 5.51c2.9.94 4.23 4 4.23 6.39 0 4.76-3.07 7.39-8.62 7.39zm10.26-2.94c2.13 0 5.46-.57 5.46-4.36 0-3.26-2.67-4.95-5.33-4.95h-7.23v9.31zm.13-12.33c1.82 0 4.62-.6 4.62-4.07 0-2.83-1.63-4.51-4.75-4.51h-7.1v8.58z" transform="translate(-132.28 -211.11)"/><path class="cls-1" d="M141.78 28.91V2.53h3.18v23.23h13.9v3.15h-17.08zM78.76 28.92V5.47h-8.99V2.53h21.14v2.94h-8.98v23.45h-3.17zM113.12 28.92V5.47h-8.98V2.53h21.14v2.94h-8.99v23.45h-3.17z"/><path class="cls-1" d="M132.28 299.53v-35.24h16.45c5.61 0 11.61 2.56 11.61 9.75 0 3.3-1.16 5.55-3.45 6.7l-.46.23.44.26a9.34 9.34 0 0 1 4.4 8.1c0 9.11-8.67 10.17-12.4 10.2zm8.57-7.32h8.07a3.39 3.39 0 0 0 3.73-3.65 3.48 3.48 0 0 0-3.73-3.7h-8.07zm0-14.26h7.65c2 0 3.21-1.13 3.21-2.94a2.93 2.93 0 0 0-3.11-3.09h-7.75zM202.28 299.53L194.89 288l-3.71-.12v11.61h-8.72v-35.2h15.71c8.55 0 12.44 6.25 12.44 12 0 5.1-2 8.25-6.75 10.54l-.3.14 8.69 12.34v.17zM191.18 281h7.09c2.78 0 3.77-2.38 3.77-4.42 0-2.27-1.21-4.72-3.87-4.72h-7zM307.59 299.48l-6-17.7-5.8 17.7h-7.09l-12-35.19h9.53l4.14 12.4a69 69 0 0 1 1.57 7.4l.14.84h.52l6-20.67h6l6.14 20.74h.52c.48-2.74 1.09-5.6 1.82-8.52l3.86-12.12h9.52l-11.73 35.19zM189.51 229c-.45-6.91-9.95-16-11-17l-.94-.87-.94.87c-.1.1-10.55 9.87-11 17a12.94 12.94 0 0 0 3.12 9.65 11.94 11.94 0 0 0 17.7 0 13 13 0 0 0 3.06-9.65zm-7.83 4.87a5.62 5.62 0 0 1-8.32 0 6.09 6.09 0 0 1-1.45-4.57c.22-3.17 5.07-8.1 5.62-8.65.91.9 5.41 5.55 5.62 8.65a6 6 0 0 1-1.47 4.55z" transform="translate(-132.28 -211.11)"/><path class="cls-1" d="M125.92 80.44h-16.45v-5.97h15.87v-7.68h-15.87v-5.67h15.87v-7.94H100.9v35.24h25.02v-7.98zM192.74 25.76h-13.7v-8.8h13.08v-3.07h-13.08V5.57h13.08V2.53h-16.23v26.38h16.85v-3.15z"/></svg>